<svg width="56" height="55" viewBox="0 0 56 55" fill="none" xmlns="http://www.w3.org/2000/svg">
<path d="M47.6695 0.803952C47.3609 0.62592 46.9931 0.57519 46.6466 0.662861C46.3 0.750533 46.0029 0.969467 45.8203 1.27175L36.1489 17.3632C36.0993 17.4466 36.0593 17.5352 36.0295 17.6273C34.9474 18.0213 33.9374 18.5849 33.0387 19.296C30.1083 14.4065 24.7391 11.3277 18.8732 11.3277C9.82213 11.3277 2.45967 18.5484 2.43444 27.4318H0.300903L0.491673 28.9241C1.60183 37.5971 7.04798 45.1726 14.8787 49.1616V54.2827H35.0843C37.6455 54.2827 39.7292 52.2344 39.7292 49.7183V49.1623C47.5624 45.1714 53.0061 37.5959 54.1187 28.9241L54.3095 27.4306H50.4566C50.4387 22.8964 47.4781 19.0416 43.36 17.5862L55.4264 6.18186C55.9631 5.67478 55.9803 4.83467 55.4621 4.30763C55.3394 4.18216 55.1926 4.08167 55.0303 4.0119C54.868 3.94214 54.6932 3.90447 54.5161 3.90104C54.3389 3.89762 54.1628 3.92851 53.9978 3.99195C53.8328 4.05539 53.6821 4.15013 53.5544 4.27077L40.1132 16.9764C39.9926 16.9715 39.8726 16.9582 39.7501 16.9582C39.6726 16.9582 39.5981 16.9691 39.5218 16.9703L48.1458 2.62016C48.236 2.47019 48.2952 2.30425 48.3201 2.13181C48.3449 1.95937 48.3349 1.78381 48.2907 1.61516C48.2465 1.4465 48.1689 1.28806 48.0623 1.14887C47.9557 1.00968 47.8222 0.892478 47.6695 0.803952ZM18.8726 13.9804C24.04 13.9804 28.7501 16.8374 31.0929 21.3135C30.2388 22.4673 29.6332 23.78 29.3132 25.1714C28.2394 20.4764 23.9698 16.957 18.8726 16.957C12.9852 16.957 8.19567 21.652 8.17044 27.4312H5.13537C5.15998 20.011 11.3114 13.9804 18.8726 13.9804ZM18.8726 22.5936C16.1464 22.5936 13.928 24.7604 13.9027 27.4312H10.872C10.8972 23.1146 14.4744 19.6103 18.8726 19.6103C23.272 19.6103 26.8529 23.1146 26.8757 27.4312H23.8412C23.8172 24.7604 21.5987 22.5936 18.8726 22.5936ZM21.1384 27.4318H16.6067C16.6188 26.8488 16.8628 26.2936 17.2866 25.8851C17.7103 25.4766 18.2801 25.2473 18.8738 25.2463C19.4673 25.2475 20.0367 25.4769 20.46 25.8854C20.8833 26.2939 21.1269 26.8491 21.1384 27.4318ZM51.1975 30.0845C49.6966 37.793 44.3741 44.3646 36.9975 47.5123H32.6744V50.1656H36.9686C36.8675 50.5819 36.6267 50.9526 36.2851 51.2183C35.9434 51.4839 35.5207 51.6289 35.0849 51.63H17.5803V50.1656H22.6443V47.5123H17.6129C10.2363 44.3664 4.91321 37.793 3.41106 30.0845H51.1975ZM37.4849 27.4318C37.4968 26.849 37.7405 26.294 38.1639 25.8855C38.5873 25.4771 39.1567 25.2476 39.7501 25.2463C40.3441 25.2468 40.9143 25.4759 41.3383 25.8845C41.7624 26.293 42.0065 26.8485 42.0184 27.4318H37.4849ZM39.7501 19.6109C44.1514 19.6109 47.7335 23.1152 47.7569 27.4318H44.7206C44.696 24.761 42.4769 22.5942 39.7501 22.5942C37.024 22.5942 34.8074 24.761 34.7827 27.4318H31.7495C31.7741 23.1152 35.3514 19.6109 39.7501 19.6109Z" fill="#AD343E"/>
</svg>
