<svg width="64" height="64" viewBox="0 0 64 64" fill="none" xmlns="http://www.w3.org/2000/svg">
<rect width="64" height="64" rx="12" fill="#F1F6FF"/>
<path d="M44.6667 36.6666C45.04 36.6666 45.3333 36.96 45.3333 37.3333V38.6666C45.3333 40.88 43.5467 42.6666 41.3333 42.6666C41.3333 40.4666 39.5333 38.6666 37.3333 38.6666C35.1333 38.6666 33.3333 40.4666 33.3333 42.6666H30.6667C30.6667 40.4666 28.8667 38.6666 26.6667 38.6666C24.4667 38.6666 22.6667 40.4666 22.6667 42.6666C20.4533 42.6666 18.6667 40.88 18.6667 38.6666V36C18.6667 35.2666 19.2667 34.6666 20 34.6666H32.6667C34.5067 34.6666 36 33.1733 36 31.3333V24C36 23.2666 36.6 22.6666 37.3333 22.6666H38.4533C39.4133 22.6666 40.2933 23.1866 40.7733 24.0133L41.6267 25.5066C41.7467 25.72 41.5867 26 41.3333 26C39.4933 26 38 27.4933 38 29.3333V33.3333C38 35.1733 39.4933 36.6666 41.3333 36.6666H44.6667Z" fill="url(#paint0_linear_17_27)"/>
<path d="M26.6667 45.3333C28.1394 45.3333 29.3333 44.1394 29.3333 42.6667C29.3333 41.1939 28.1394 40 26.6667 40C25.1939 40 24 41.1939 24 42.6667C24 44.1394 25.1939 45.3333 26.6667 45.3333Z" fill="url(#paint1_linear_17_27)"/>
<path d="M37.3333 45.3333C38.8061 45.3333 40 44.1394 40 42.6667C40 41.1939 38.8061 40 37.3333 40C35.8606 40 34.6667 41.1939 34.6667 42.6667C34.6667 44.1394 35.8606 45.3333 37.3333 45.3333Z" fill="url(#paint2_linear_17_27)"/>
<path d="M45.3333 32.7067V34.6667H41.3333C40.6 34.6667 40 34.0667 40 33.3333V29.3333C40 28.6 40.6 28 41.3333 28H43.0533L44.9867 31.3867C45.2133 31.7867 45.3333 32.24 45.3333 32.7067Z" fill="url(#paint3_linear_17_27)"/>
<path d="M33.44 18.6666H23.5867C21.2 18.6666 19.2 20.3733 18.76 22.64H24.5867C25.0934 22.64 25.4934 23.0533 25.4934 23.56C25.4934 24.0666 25.0934 24.4666 24.5867 24.4666H18.6667V26.3066H22.1334C22.64 26.3066 23.0534 26.72 23.0534 27.2266C23.0534 27.7333 22.64 28.1333 22.1334 28.1333H18.6667V29.9733H19.6934C20.2 29.9733 20.6134 30.3866 20.6134 30.8933C20.6134 31.4 20.2 31.8 19.6934 31.8H18.6667V32.1066C18.6667 32.84 19.2667 33.44 20 33.44H32.2C33.56 33.44 34.6667 32.3333 34.6667 30.9733V19.8933C34.6667 19.2133 34.12 18.6666 33.44 18.6666Z" fill="url(#paint4_linear_17_27)"/>
<path d="M18.76 22.64H18.56H17.2533C16.7467 22.64 16.3333 23.0533 16.3333 23.56C16.3333 24.0667 16.7467 24.4667 17.2533 24.4667H18.4667H18.6667V23.5867C18.6667 23.2667 18.7067 22.9467 18.76 22.64Z" fill="url(#paint5_linear_17_27)"/>
<path d="M18.4667 26.3066H17.2533C16.7467 26.3066 16.3333 26.72 16.3333 27.2266C16.3333 27.7333 16.7467 28.1333 17.2533 28.1333H18.4667H18.6667V26.3066H18.4667Z" fill="url(#paint6_linear_17_27)"/>
<path d="M18.4667 29.9733H17.2533C16.7467 29.9733 16.3333 30.3866 16.3333 30.8933C16.3333 31.3999 16.7467 31.7999 17.2533 31.7999H18.4667H18.6667V29.9733H18.4667Z" fill="url(#paint7_linear_17_27)"/>
<defs>
<linearGradient id="paint0_linear_17_27" x1="44.8525" y1="22.6666" x2="15.9007" y2="37.1297" gradientUnits="userSpaceOnUse">
<stop stop-color="#2878FF"/>
<stop offset="1" stop-color="#2C65C8"/>
</linearGradient>
<linearGradient id="paint1_linear_17_27" x1="29.2372" y1="40" x2="22.8924" y2="42.3772" gradientUnits="userSpaceOnUse">
<stop stop-color="#2878FF"/>
<stop offset="1" stop-color="#2C65C8"/>
</linearGradient>
<linearGradient id="paint2_linear_17_27" x1="39.9038" y1="40" x2="33.5591" y2="42.3772" gradientUnits="userSpaceOnUse">
<stop stop-color="#2878FF"/>
<stop offset="1" stop-color="#2C65C8"/>
</linearGradient>
<linearGradient id="paint3_linear_17_27" x1="45.2372" y1="28" x2="38.5982" y2="29.9899" gradientUnits="userSpaceOnUse">
<stop stop-color="#2878FF"/>
<stop offset="1" stop-color="#2C65C8"/>
</linearGradient>
<linearGradient id="paint4_linear_17_27" x1="34.3782" y1="18.6666" x2="15.7408" y2="26.2293" gradientUnits="userSpaceOnUse">
<stop stop-color="#2878FF"/>
<stop offset="1" stop-color="#2C65C8"/>
</linearGradient>
<linearGradient id="paint5_linear_17_27" x1="18.7163" y1="22.64" x2="16.0778" y2="23.9533" gradientUnits="userSpaceOnUse">
<stop stop-color="#2878FF"/>
<stop offset="1" stop-color="#2C65C8"/>
</linearGradient>
<linearGradient id="paint6_linear_17_27" x1="18.6246" y1="26.3066" x2="16.049" y2="27.5393" gradientUnits="userSpaceOnUse">
<stop stop-color="#2878FF"/>
<stop offset="1" stop-color="#2C65C8"/>
</linearGradient>
<linearGradient id="paint7_linear_17_27" x1="18.6246" y1="29.9733" x2="16.049" y2="31.2059" gradientUnits="userSpaceOnUse">
<stop stop-color="#2878FF"/>
<stop offset="1" stop-color="#2C65C8"/>
</linearGradient>
</defs>
</svg>
