<svg width="64" height="64" viewBox="0 0 64 64" fill="none" xmlns="http://www.w3.org/2000/svg">
<rect width="64" height="64" rx="12" fill="#F1F6FF"/>
<path d="M33 37.2266H33.8667C34.7333 37.2266 35.4533 36.4533 35.4533 35.52C35.4533 34.36 35.04 34.1333 34.36 33.8933L33.0133 33.4266V37.2266H33Z" fill="url(#paint0_linear_17_58)"/>
<path d="M31.96 18.5333C24.6 18.56 18.64 24.5467 18.6667 31.9067C18.6933 39.2667 24.68 45.2267 32.04 45.2C39.4 45.1733 45.36 39.1867 45.3333 31.8267C45.3067 24.4667 39.32 18.52 31.96 18.5333ZM35.0133 32C36.0533 32.36 37.4533 33.1333 37.4533 35.52C37.4533 37.5733 35.84 39.2267 33.8667 39.2267H33V40C33 40.5467 32.5467 41 32 41C31.4533 41 31 40.5467 31 40V39.2267H30.52C28.3333 39.2267 26.56 37.3867 26.56 35.12C26.56 34.5733 27.0133 34.12 27.56 34.12C28.1067 34.12 28.56 34.5733 28.56 35.12C28.56 36.28 29.44 37.2267 30.52 37.2267H31V32.72L28.9867 32C27.9467 31.64 26.5467 30.8667 26.5467 28.48C26.5467 26.4267 28.16 24.7733 30.1333 24.7733H31V24C31 23.4533 31.4533 23 32 23C32.5467 23 33 23.4533 33 24V24.7733H33.48C35.6667 24.7733 37.44 26.6133 37.44 28.88C37.44 29.4267 36.9867 29.88 36.44 29.88C35.8933 29.88 35.44 29.4267 35.44 28.88C35.44 27.72 34.56 26.7733 33.48 26.7733H33V31.28L35.0133 32Z" fill="url(#paint1_linear_17_58)"/>
<path d="M28.56 28.4933C28.56 29.6533 28.9733 29.88 29.6533 30.12L31 30.5866V26.7733H30.1333C29.2667 26.7733 28.56 27.5466 28.56 28.4933Z" fill="url(#paint2_linear_17_58)"/>
<defs>
<linearGradient id="paint0_linear_17_58" x1="35.4091" y1="33.4266" x2="32.2648" y2="34.1872" gradientUnits="userSpaceOnUse">
<stop stop-color="#2878FF"/>
<stop offset="1" stop-color="#2C65C8"/>
</linearGradient>
<linearGradient id="paint1_linear_17_58" x1="44.8525" y1="18.5333" x2="13.1287" y2="30.4193" gradientUnits="userSpaceOnUse">
<stop stop-color="#2878FF"/>
<stop offset="1" stop-color="#2C65C8"/>
</linearGradient>
<linearGradient id="paint2_linear_17_58" x1="30.956" y1="26.7733" x2="27.8257" y2="27.5238" gradientUnits="userSpaceOnUse">
<stop stop-color="#2878FF"/>
<stop offset="1" stop-color="#2C65C8"/>
</linearGradient>
</defs>
</svg>
