<svg width="90" height="82" viewBox="0 0 90 82" fill="none" xmlns="http://www.w3.org/2000/svg">
<g opacity="0.1" clip-path="url(#clip0_1_212)">
<path d="M62.53 0.0600013C61.109 0.593685 59.7924 1.37211 58.64 2.36C58.2574 2.7637 57.8391 3.13187 57.39 3.46C56.4398 4.05317 55.7637 4.999 55.51 6.09C55.4225 6.69968 55.2751 7.29925 55.07 7.88C54.9051 8.19445 54.8326 8.54918 54.8609 8.90313C54.8892 9.25708 55.0172 9.59577 55.23 9.88C55.6 10.42 55.92 10.99 56.23 11.55C56.46 11.95 56.45 12.33 55.97 12.55C55.49 12.77 55.62 12.96 55.77 13.3C55.87 13.5435 55.87 13.8165 55.77 14.06C55.24 15.24 54.62 16.38 54.14 17.57C53.3786 19.1879 52.468 20.7312 51.42 22.18C50.91 22.98 50.15 23.61 49.59 24.37C48.59 25.74 47.4 26.96 46.43 28.37C44.83 30.68 43 32.8 41.22 35C39.7275 36.933 38.4906 39.0505 37.54 41.3C37.15 42.21 36.69 43.09 36.26 43.97C35.49 45.56 34.7 47.13 33.97 48.72C33.47 49.79 33.08 50.9 32.6 51.97C32.03 53.24 31.43 54.49 30.82 55.74C29.91 57.63 29.07 59.55 28.05 61.38C26.4206 64.0461 24.4244 66.4698 22.12 68.58C21.9266 68.7774 21.6906 68.9279 21.43 69.02C19.6567 69.56 17.8767 70.0833 16.09 70.59C15.3451 70.736 14.6538 71.0816 14.09 71.59C13.09 72.59 12.03 73.59 11.02 74.65C10.5346 75.1677 9.89727 75.5179 9.2 75.65C8.68493 75.7593 8.1641 75.8394 7.64 75.89C7.19 75.89 6.74 75.8 6.29 75.83C5.66452 75.8968 5.08321 76.1839 4.65 76.64C4.2844 77.049 3.84724 77.3879 3.36 77.64C2.37634 78.0748 1.51446 78.7444 0.85 79.59C0.525186 80.0337 0.240719 80.5056 0 81C0.79 81.29 1.34 81.48 2 81.17C2.66 80.86 3.57 80.47 4.36 80.1C5.3038 79.5675 6.34389 79.2276 7.42 79.1C8.65339 79.0332 9.89001 79.0566 11.12 79.17C11.6297 79.2294 12.1463 79.1712 12.63 79C13.4266 78.6569 14.1815 78.2241 14.88 77.71C15.6129 77.0899 16.4897 76.6636 17.43 76.47C18.3743 76.3088 19.3345 76.2618 20.29 76.33C22.51 76.53 24.72 76.82 26.93 77.13C29.2042 77.5511 31.5219 77.6888 33.83 77.54C35.28 77.39 36.73 77.35 38.17 77.2C39.594 77.1385 41.0049 76.9 42.37 76.49C42.6714 76.4205 42.9816 76.3969 43.29 76.42C44.56 76.42 45.83 76.42 47.09 76.32C48.53 76.2 49.96 75.92 51.4 75.74C53.2864 75.4242 55.1224 74.8593 56.86 74.06C59.06 73.16 61.22 72.17 63.39 71.2C64.2191 70.8729 65.0216 70.4817 65.79 70.03C67.45 68.96 69.11 67.89 70.69 66.73C72.27 65.57 74.14 64.68 75.3 63C75.3448 62.9205 75.4105 62.8548 75.49 62.81C76.1235 62.4473 76.6457 61.9182 77 61.28C77.1056 61.128 77.2226 60.9842 77.35 60.85C78.5298 59.6541 79.6132 58.3668 80.59 57C82.0732 55.1402 83.4488 53.197 84.71 51.18C85.7573 49.5693 86.5878 47.8277 87.18 46C87.45 44.93 87.85 43.88 88.18 42.81C88.6 41.36 89.06 39.9 89.34 38.42C89.7908 36.3089 89.8518 34.1331 89.52 32C89.32 30.82 89.28 29.61 89.12 28.41C89.02 27.68 88.77 26.97 88.69 26.23C88.431 24.5473 87.9501 22.9064 87.26 21.35C86.64 19.67 85.92 18.02 85.37 16.35C85.0828 15.3085 84.5436 14.3537 83.8 13.57C83.5191 13.2809 83.2616 12.9699 83.03 12.64C81.866 10.815 80.4177 9.18779 78.74 7.82C77.74 7.09 76.91 6.04 75.6 5.73C75.5563 5.71802 75.5157 5.69659 75.4811 5.66721C75.4466 5.63784 75.4189 5.60124 75.4 5.56C74.98 4.64 74.03 4.24 73.4 3.56C73.2739 3.42343 73.1042 3.33504 72.92 3.31C72.0294 3.05376 71.1068 2.9258 70.18 2.93C69.5592 2.98747 68.9408 2.79694 68.46 2.4C67.1469 1.45606 65.6826 0.742536 64.13 0.290001C63.6319 0.0541811 63.0743 -0.0259744 62.53 0.0600013Z" fill="white"/>
<path d="M62.53 0.0600013C61.109 0.593685 59.7924 1.37211 58.64 2.36C58.2574 2.7637 57.8391 3.13187 57.39 3.46C56.4398 4.05317 55.7637 4.999 55.51 6.09C55.4225 6.69968 55.2751 7.29925 55.07 7.88C54.9051 8.19445 54.8326 8.54918 54.8609 8.90313C54.8892 9.25708 55.0172 9.59577 55.23 9.88C55.6 10.42 55.92 10.99 56.23 11.55C56.46 11.95 56.45 12.33 55.97 12.55C55.49 12.77 55.62 12.96 55.77 13.3C55.87 13.5435 55.87 13.8165 55.77 14.06C55.24 15.24 54.62 16.38 54.14 17.57C53.3786 19.1879 52.468 20.7312 51.42 22.18C50.91 22.98 50.15 23.61 49.59 24.37C48.59 25.74 47.4 26.96 46.43 28.37C44.83 30.68 43 32.8 41.22 35C39.7275 36.933 38.4906 39.0505 37.54 41.3C37.15 42.21 36.69 43.09 36.26 43.97C35.49 45.56 34.7 47.13 33.97 48.72C33.47 49.79 33.08 50.9 32.6 51.97C32.03 53.24 31.43 54.49 30.82 55.74C29.91 57.63 29.07 59.55 28.05 61.38C26.4206 64.0461 24.4244 66.4698 22.12 68.58C21.9266 68.7774 21.6906 68.9279 21.43 69.02C19.6567 69.56 17.8767 70.0833 16.09 70.59C15.3451 70.736 14.6538 71.0816 14.09 71.59C13.09 72.59 12.03 73.59 11.02 74.65C10.5346 75.1677 9.89727 75.5179 9.2 75.65C8.68493 75.7593 8.1641 75.8394 7.64 75.89C7.19 75.89 6.74 75.8 6.29 75.83C5.66452 75.8968 5.08321 76.1839 4.65 76.64C4.2844 77.049 3.84724 77.3879 3.36 77.64C2.37634 78.0748 1.51446 78.7444 0.85 79.59C0.525186 80.0337 0.240719 80.5056 0 81C0.79 81.29 1.34 81.48 2 81.17C2.66 80.86 3.57 80.47 4.36 80.1C5.3038 79.5675 6.34389 79.2276 7.42 79.1C8.65339 79.0332 9.89001 79.0566 11.12 79.17C11.6297 79.2294 12.1463 79.1712 12.63 79C13.4266 78.6569 14.1815 78.2241 14.88 77.71C15.6129 77.0899 16.4897 76.6636 17.43 76.47C18.3743 76.3088 19.3345 76.2618 20.29 76.33C22.51 76.53 24.72 76.82 26.93 77.13C29.2042 77.5511 31.5219 77.6888 33.83 77.54C35.28 77.39 36.73 77.35 38.17 77.2C39.594 77.1385 41.0049 76.9 42.37 76.49C42.6714 76.4205 42.9816 76.3969 43.29 76.42C44.56 76.42 45.83 76.42 47.09 76.32C48.53 76.2 49.96 75.92 51.4 75.74C53.2864 75.4242 55.1224 74.8593 56.86 74.06C59.06 73.16 61.22 72.17 63.39 71.2C64.2191 70.8729 65.0216 70.4817 65.79 70.03C67.45 68.96 69.11 67.89 70.69 66.73C72.27 65.57 74.14 64.68 75.3 63C75.3448 62.9205 75.4105 62.8548 75.49 62.81C76.1235 62.4473 76.6457 61.9182 77 61.28C77.1056 61.128 77.2226 60.9842 77.35 60.85C78.5298 59.6541 79.6132 58.3668 80.59 57C82.0732 55.1402 83.4488 53.197 84.71 51.18C85.7573 49.5693 86.5878 47.8277 87.18 46C87.45 44.93 87.85 43.88 88.18 42.81C88.6 41.36 89.06 39.9 89.34 38.42C89.7908 36.3089 89.8518 34.1331 89.52 32C89.32 30.82 89.28 29.61 89.12 28.41C89.02 27.68 88.77 26.97 88.69 26.23C88.431 24.5473 87.9501 22.9064 87.26 21.35C86.64 19.67 85.92 18.02 85.37 16.35C85.0828 15.3085 84.5436 14.3537 83.8 13.57C83.5191 13.2809 83.2616 12.9699 83.03 12.64C81.866 10.815 80.4177 9.18779 78.74 7.82C77.74 7.09 76.91 6.04 75.6 5.73C75.5563 5.71802 75.5157 5.69659 75.4811 5.66721C75.4466 5.63784 75.4189 5.60124 75.4 5.56C74.98 4.64 74.03 4.24 73.4 3.56C73.2739 3.42343 73.1042 3.33504 72.92 3.31C72.0294 3.05376 71.1068 2.9258 70.18 2.93C69.5592 2.98747 68.9408 2.79694 68.46 2.4C67.1469 1.45606 65.6826 0.742536 64.13 0.290001C63.6319 0.0541811 63.0743 -0.0259744 62.53 0.0600013ZM62.61 1.68L63.61 3.38C62.77 3.38 62.61 2.58 61.96 2.38C61.52 3.27 62.78 3.38 62.63 4.08C62.18 4.37 61.94 3.94 61.63 3.71C61.3397 3.42238 61.0659 3.11856 60.81 2.8L62.61 1.68ZM60.24 12.94C60.1064 12.5463 59.8369 12.2131 59.48 12C58.99 11.65 58.38 11.39 58.26 10.68C58.2504 10.6366 58.231 10.5961 58.2033 10.5614C58.1755 10.5267 58.1402 10.4989 58.1 10.48C57.39 10.31 57.21 9.64 56.88 9.15C56.6005 8.6953 56.4609 8.16841 56.4787 7.63496C56.4965 7.10151 56.6708 6.58508 56.98 6.15C57.05 6.42 57.1 6.69 57.19 6.95C57.2511 7.15414 57.357 7.34205 57.5 7.5C57.57 7.58 57.77 7.5 57.92 7.5C57.92 7.37 57.92 7.25 57.87 7.12L57.39 5.56C57.8754 5.02172 58.4822 4.60693 59.16 4.35C58.93 4.35 58.79 4.17 59.02 4C59.5 3.63 60.02 3.3 60.49 3C60.82 3.48 61.11 3.87 61.37 4.3C61.4372 4.46831 61.4679 4.64896 61.46 4.83C61.2758 4.79514 61.0974 4.73455 60.93 4.65C60.6469 4.40751 60.3765 4.1505 60.12 3.88L59.12 4.4C60.05 4.35 60.6 4.98 60.4 6.05L59.4 4.87C58.72 4.81 59.32 5.53 58.94 5.71C58.6272 5.89246 58.3296 6.09979 58.05 6.33C57.98 6.59 57.91 6.87 57.84 7.15C58.0236 7.1706 58.1942 7.25493 58.3221 7.3883C58.45 7.52168 58.5271 7.69566 58.54 7.88C58.62 9.21 59.65 9.99 60.26 11.01C60.3941 11.2049 60.5017 11.4168 60.58 11.64C60.6296 11.8156 60.7148 11.9791 60.8303 12.1204C60.9459 12.2617 61.0892 12.3777 61.2515 12.4611C61.4138 12.5446 61.5915 12.5938 61.7736 12.6057C61.9557 12.6175 62.1383 12.5918 62.31 12.53C61.9319 12.4859 61.5758 12.3287 61.2886 12.0789C61.0013 11.8291 60.7961 11.4984 60.7 11.13C61.32 11.52 61.8 11.8 62.25 12.13C62.33 12.19 62.25 12.39 62.31 12.54C62.8242 12.6061 63.3417 12.6429 63.86 12.65C64.4002 12.6105 64.9377 12.5404 65.47 12.44L66.47 14.03L65.6 14.24C65.5 13.48 65.25 12.92 64.46 12.86C64.46 13.38 64.46 13.38 64.79 14.1C64.57 14.29 64.39 14.47 64.16 14.1C63.8078 13.6224 63.3786 13.2067 62.89 12.87C62.89 13.36 62.89 13.61 62.89 13.95L62.34 13.46C62.22 13.57 62.08 13.64 62.02 13.76C61.9879 13.8315 61.94 13.8948 61.88 13.9451C61.8199 13.9955 61.7493 14.0317 61.6733 14.0509C61.5974 14.0701 61.518 14.072 61.4413 14.0562C61.3645 14.0405 61.2923 14.0076 61.23 13.96C60.8053 13.7268 60.4605 13.3714 60.24 12.94ZM69.18 8.35C68.2201 9.19361 67.1504 9.90339 66 10.46C65.6315 10.6235 65.2331 10.7086 64.83 10.71C66.2758 9.80686 67.5658 8.67555 68.65 7.36C68.31 7.31 68.1 7.21 67.99 7.28C67.5405 7.48546 67.1361 7.77772 66.8 8.14C65.9406 9.1145 64.8653 9.8747 63.66 10.36C63.2517 10.5807 62.823 10.7616 62.38 10.9C62.16 10.98 61.88 11.05 61.78 10.61L64.84 8.83C64.92 8.78 65.03 8.76 65.08 8.69C65.54 8.06 65.99 7.42 66.55 6.63C66.3354 6.66361 66.1266 6.72758 65.93 6.82C65.51 7.13 65.11 7.46 64.71 7.82C63.9296 8.45892 63.0605 8.98104 62.13 9.37C61.81 9.52 61.42 9.46 61.13 9.9C60.84 10.34 60.55 9.69 60.29 9.43C62.2 7.87 64.54 7 66.07 4.89C66.78 5.24 67.61 5.49 68 6.39C68.1282 6.60328 68.3067 6.78184 68.52 6.91L70.42 8.34L69.72 9C69.72 8.64 69.72 8.45 69.72 8.17C69.5305 8.19638 69.3474 8.25739 69.18 8.35ZM81.79 18.27C81.79 18.58 81.79 18.9 81.72 19.21H81.6L81.28 18.5C81.46 18.41 81.62 18.31 81.79 18.23L82.43 17.61C82.95 18.42 82.95 18.42 82.43 18.83L81.75 18.23L81.79 18.27ZM76.43 21.49L77.8 21.57C77.92 22.13 78.02 22.57 78.13 23.17L76.62 22.94C76.57 22.52 76.51 22.07 76.43 21.49ZM75.64 22.8C75.17 22.52 75.15 22.42 75.35 21.38C75.7 22 75.7 22 75.64 22.8ZM69.14 29.71L67.93 29.59L68.93 30.44C68.93 30.73 68.84 31.03 68.78 31.44L66.88 30.66C67.22 31.47 68.06 31.66 68.57 32.22C68.57 32.6 68.47 32.98 68.39 33.47L65.8 32.1L67.2 27.64C67.85 27.97 68.44 28.23 68.99 28.55C69.54 28.87 69.31 29.26 69.14 29.71ZM70.64 30.6L69.74 30.13C69.74 29.8 69.83 29.51 69.87 29.22C71 29.33 71.12 29.56 70.64 30.6ZM69.58 31C70.66 31.3 70.67 31.3 70.42 32.38L69.42 31.86C69.47 31.49 69.53 31.23 69.58 31ZM69.32 32.64L70.32 33.07C70.22 33.44 70.11 33.81 69.99 34.25C69.63 34.08 69.33 33.94 68.99 33.76C69.08 33.33 69.19 33 69.32 32.61V32.64ZM70.24 26.87C70.99 26.99 71.09 27.07 71.11 27.72C71.11 28.11 71.11 28.5 71.11 29.02C69.89 28.2 69.89 28.2 70.24 26.84V26.87ZM69.3 27.87C68.5 27.62 68.47 27.46 68.86 26.06L69.66 26.35L69.3 27.87ZM67.88 27.27C67.51 27.32 67.3 27.22 67.33 26.9C67.46 25.09 67.6 23.28 67.75 21.34C68.35 21.66 68.22 22.04 68.24 22.34C68.1999 22.9527 68.1999 23.5673 68.24 24.18C68.33 24.74 67.92 25.18 68.04 25.77C68.0641 26.2555 68.0101 26.7417 67.88 27.21V27.27ZM70.34 25.78C70.34 25.25 70.76 25.27 71.18 25.09C71.18 25.5 71.18 25.87 71.18 26.31C70.74 26.17 70.38 26.16 70.34 25.72V25.78ZM69.53 25.59C68.74 25.39 68.53 25.05 68.81 24.11C69.84 24.49 69.85 24.52 69.53 25.53V25.59ZM70.37 22.93C71.37 23.34 71.37 23.36 71.02 24.56C70.05 24.24 70.77 23.35 70.37 22.87V22.93ZM69.68 23.76C68.89 23.76 68.79 23.62 68.85 22.98C68.85 22.65 68.94 22.32 69 21.92C69.93 22.41 70 22.39 69.68 23.7V23.76ZM70.44 21.36C70.99 21.36 71.07 21.7 71.06 22.24C70.54 22 70.23 21.85 70.44 21.3V21.36ZM69.66 21.63L68.85 21.26C68.9 20.96 68.94 20.7 68.98 20.43C69.8 20.62 69.8 20.62 69.66 21.57V21.63ZM70.83 19.63L70.93 20.73C70.28 20.14 70.28 20.14 70.83 19.56V19.63ZM69.91 20.02C69.7135 19.9875 69.5197 19.9407 69.33 19.88C69.2193 19.8312 69.1124 19.7744 69.01 19.71C69 19.5568 69 19.4032 69.01 19.25C69.0497 19.0607 69.0998 18.8738 69.16 18.69C69.88 18.78 69.77 19.35 69.91 20V20.02ZM68.2 20.87H68C68 19.96 68.1 19.06 68.17 17.96C68.4482 18.8848 68.4586 19.8695 68.2 20.8V20.87ZM69 15.19H69.23C69.5138 16.1636 69.6388 17.1766 69.6 18.19C69.37 18.04 69.15 17.97 69.14 17.88C69.07 17 69 16.07 69 15.19ZM68.36 17.62C68.13 17.46 67.95 17.41 67.95 17.33C67.8713 16.4625 67.97 15.5881 68.24 14.76C68.5841 15.6765 68.6227 16.6797 68.35 17.62H68.36ZM70.16 16C70.5317 16.7808 70.6672 17.6532 70.55 18.51C70.1621 17.7343 70.0258 16.8569 70.16 16ZM72.16 15.44C72.78 15.24 73.06 15.44 73.16 16.05L72.54 16.36C72.65 16.48 72.7 16.58 72.76 16.58C72.9309 16.5751 73.0979 16.6322 73.2302 16.7405C73.3625 16.8489 73.4512 17.0014 73.48 17.17C73.74 18.33 74.03 19.49 74.33 20.77L73.24 20.97C72.9 19.12 72.54 17.32 72.18 15.47L72.16 15.44ZM66.74 12C67.01 12.6 67.25 13.16 67.5 13.72L67.33 13.83L66.14 12.24L66.74 12ZM62.58 12.16C62.9098 11.963 63.2796 11.8427 63.6622 11.8081C64.0448 11.7735 64.4302 11.8254 64.79 11.96C64.481 12.2028 64.11 12.354 63.7194 12.3964C63.3287 12.4388 62.9339 12.3708 62.58 12.2V12.16ZM71.82 14.48C71.68 14.07 71.46 13.63 71.99 13.12L72.76 14.59C72.08 15.05 72 15 71.82 14.52V14.48ZM75.41 14.93C75.93 14.74 76.07 15.13 76.29 15.66C75.82 15.66 75.44 16.01 75.29 15.44C75.23 15.34 75.31 15 75.41 15V14.93ZM74.29 16C73.86 15.93 73.84 15.6 73.8 15.27C74.43 15.32 74.43 15.32 74.29 16ZM78.29 17.11C77.67 17.11 77.68 16.66 77.48 16.44C77.48 16.66 77.48 16.89 77.57 17.23L75.8 17.42L75.55 16.42C76.06 16.42 76.46 16.06 76.88 16.52C76.96 16.61 77.27 16.52 77.48 16.45L77.85 16.26L78.29 17.11ZM78.79 16.4C79.16 16.64 79.17 16.63 79.46 17.16C79 17 79 17 78.84 16.44L78.79 16.4ZM76.28 18.9L75.96 18.1C77.5 17.51 78.05 17.68 78.34 18.79C77.77 19.1 77.83 18.44 77.49 18.23C77.4218 18.4728 77.2644 18.6809 77.0493 18.8126C76.8342 18.9442 76.5773 18.9897 76.33 18.94L76.28 18.9ZM75.24 19C75.1 19 74.88 19 74.85 19C74.7352 18.7689 74.6414 18.528 74.57 18.28C74.83 18.04 75.02 18.07 75.11 18.33C75.1723 18.5492 75.2158 18.7734 75.24 19ZM74.41 17.5C74.3073 17.2209 74.2303 16.9331 74.18 16.64C74.7 16.73 75.07 17.3 74.84 17.54C74.7713 17.5705 74.6962 17.5837 74.6213 17.5785C74.5463 17.5733 74.4738 17.5497 74.41 17.51V17.5ZM79.51 17.89C80.12 17.97 80.13 17.98 80.16 18.82C79.46 18.86 79.46 18.86 79.51 17.9V17.89ZM75 19.55C75.1231 19.5987 75.2324 19.6769 75.3183 19.7777C75.4042 19.8785 75.464 19.9988 75.4927 20.128C75.5213 20.2573 75.5178 20.3916 75.4824 20.5192C75.4471 20.6469 75.381 20.7639 75.29 20.86C75.1569 20.672 75.0626 20.4592 75.0128 20.2343C74.963 20.0093 74.9587 19.7767 75 19.55ZM78.54 21.73C79.37 21.27 79.83 21.47 80.07 23.17C78.94 23.43 78.76 23.27 78.51 21.73H78.54ZM80.95 22.88C80.88 22.56 80.75 22.25 80.61 21.82L81.32 21.63C81.6425 22.1282 81.8192 22.7067 81.83 23.3C81.34 23.46 81 23.43 80.92 22.88H80.95ZM76.4 21C76.4 20.46 76.33 20.09 76.3 19.61L77.4 19.51C77.48 19.98 77.55 20.36 77.63 20.88L76.4 21ZM78.07 19.62C78.2252 19.5442 78.4026 19.5267 78.5696 19.5707C78.7367 19.6148 78.8824 19.7175 78.98 19.86C79.35 20.32 79.38 20.36 79.25 21.02H78.46C78.33 20.52 78.2 20.06 78.07 19.57V19.62ZM80.19 21C80.05 20.56 79.91 20.1 79.77 19.63C80.77 19.46 81.16 19.84 81.14 21.14L80.19 21ZM83.1 19.31C83.76 20.2 83.75 20.36 82.96 20.56C82.51 19.6 82.51 19.6 83.1 19.33V19.31ZM81.1 17.76C80.51 17.07 80.78 16.6 81.91 16.34C82.25 17.14 82.25 17.14 81.13 17.78L81.1 17.76ZM80.29 16.47C80.29 16.05 80.29 15.73 80.37 15.61C80.45 15.49 81.01 15.08 81.48 15.7L80.29 16.47ZM78.05 15.36C77.19 15.69 77.05 15.65 76.67 14.84L77.5 14.47C77.73 14.82 77.91 15.09 78.08 15.38L78.05 15.36ZM79.81 14.59C80.0776 14.4298 80.3548 14.2862 80.64 14.16C80.64 14.43 80.76 14.74 80.7 14.77C80.4346 14.955 80.123 15.0623 79.8 15.08C79.6 15.08 79.61 14.75 79.84 14.61L79.81 14.59ZM74.53 13.44C74.44 12.85 73.62 12.54 74.16 11.83C74.88 12.52 75 12.89 74.56 13.46L74.53 13.44ZM75.53 12.01L77 13.83C77.0045 13.8866 77.0045 13.9434 77 14C76.79 14 76.49 14.06 76.39 13.94C75.9772 13.3803 75.6158 12.7846 75.31 12.16L75.53 12.01ZM73.17 13.76C73.06 13.47 72.97 13.2 72.81 12.76C73.63 13.18 73.67 13.34 73.15 13.78L73.17 13.76ZM69 13.24C68.78 13.52 68.54 13.66 68.3 13.35C68.06 13.04 67.66 12.4 67.3 11.88C67.45 11.79 67.6 11.66 67.64 11.68C68.2089 12.0867 68.6746 12.621 69 13.24ZM65.5 11.63L66.8 11.32C66.7448 11.4422 66.6621 11.55 66.5583 11.635C66.4546 11.7199 66.3326 11.7797 66.2019 11.8097C66.0712 11.8398 65.9353 11.8391 65.8049 11.808C65.6744 11.7768 65.553 11.7159 65.45 11.63H65.5ZM59.9 8.57C59.73 7.63 59.9 7.16 60.62 6.87C61.34 6.58 61.99 6.34 62.62 6.04C62.9654 5.85717 63.2994 5.65346 63.62 5.43C64.05 5.19 64.47 4.93 64.91 4.73C65.1465 4.66748 65.3973 4.68867 65.62 4.79C63.8897 6.3225 61.9461 7.59577 59.85 8.57H59.9ZM18.66 70.57C19.3786 70.1834 20.1841 69.9872 21 70L18.7 70.77L18.66 70.57ZM27 76.07L26.61 75.07L28.28 74.43L30.57 75.9C29.4242 76.3143 28.18 76.3735 27 76.07ZM21.49 74.17L22.17 74.81C22.1408 74.8535 22.1172 74.9005 22.1 74.95L20.51 74.71L21.49 74.17ZM19.49 74.53L18.92 74.42V74.25L19.5 74.34C19.4751 74.4017 19.4551 74.4652 19.44 74.53H19.49ZM39.94 67.43C40.16 67.58 40.38 67.72 40.62 67.86C39.62 68.71 39.54 68.86 38.37 67.5L39.22 66.96C39.43 67.14 39.66 67.29 39.89 67.43H39.94ZM39.94 66.61L40.94 65.99L42.22 66.83C41.21 67.73 40.86 67.69 39.94 66.61ZM37.65 67.94C38.08 68.15 38.48 68.43 38.9 68.69C38.39 69.22 38.39 69.22 37.14 68.21C37.37 68.09 37.57 67.9 37.65 67.94ZM29.34 72.17C31 71 31 71.41 32 72.2L30.37 73C30 72.71 29.67 72.45 29.34 72.17ZM29.59 73.17C28.71 73.87 28.4 73.86 27.4 73.05C28.44 72.27 28.44 72.27 29.59 73.19V73.17ZM34.15 71.09L32.69 71.86L31.76 71.12L33 70.36L34.15 71.09ZM33.86 70.09C34.86 69.43 34.86 69.43 35.86 70.34L34.81 70.84L33.86 70.09ZM33.38 72.33C34.15 71.71 34.49 71.59 35.11 71.64L36.47 70.8L37.29 71.23C37.29 70.94 37.29 70.75 37.29 70.53L38.51 70L39.19 70.53C37.5315 71.6121 35.7695 72.5266 33.93 73.26L33.38 72.33ZM35.59 69.27C36.59 68.46 36.69 68.47 37.59 69.38C37 70.28 36.28 70.2 35.59 69.27ZM35.65 68.2C34.94 68.83 34.94 68.83 34.18 68.39L32.53 67.45C32.53 67.36 32.53 67.28 32.53 67.2L33.53 66.64L35.65 68.2ZM34.05 69.2L33.19 69.66L31 68.3L32.13 67.77C32.46 68.5 33.41 68.55 34.05 69.17V69.2ZM32.48 69.94L31 70.66L29.22 69.66L30.22 68.76L32.48 69.94ZM29.78 70.94C28.27 71.76 28.71 71.94 27.13 70.76C28.22 70.06 29 70.1 29.78 71V70.94ZM27.66 72.1L26.66 72.62L25.45 71.83C26.05 70.93 26.58 71 27.66 72.12V72.1ZM24.12 71.76L26 73C25.54 73.3 25.22 73.53 24.89 73.72C24.8347 73.7498 24.7728 73.7653 24.71 73.7653C24.6472 73.7653 24.5853 73.7498 24.53 73.72C23.71 73.2 22.91 72.66 22.1 72.12C22.1 72.12 22.05 72.01 21.99 71.87L23.44 71.09L24.12 71.76ZM27.49 74.06C26.75 74.06 26.09 74.86 25.24 74.16C26.56 73.31 26.88 73.23 27.49 74.08V74.06ZM21.66 72.83C21.22 73.3 21.18 73.29 20.43 72.41C20.5393 72.3562 20.6583 72.325 20.78 72.3181C20.9016 72.3112 21.0234 72.3287 21.1381 72.3698C21.2528 72.4108 21.3581 72.4745 21.4478 72.5569C21.5374 72.6394 21.6096 72.7391 21.66 72.85V72.83ZM20 73.18C19.42 73.3 19.42 73.3 19.25 72.7L20 73.18ZM23.85 74.24L23 74.78C22.61 74.4 22.26 74.04 21.87 73.67C22.71 73.29 23.07 73.41 23.88 74.24H23.85ZM26.11 75.88L24.75 75.75C25.59 75 25.7 75 26.14 75.88H26.11ZM37.77 75.88C35.9183 76.3244 34.0105 76.4896 32.11 76.37C33.25 76.07 34.41 75.82 35.52 75.45C35.8936 75.2708 36.3137 75.2121 36.7221 75.282C37.1305 75.3518 37.5072 75.5468 37.8 75.84L37.77 75.88ZM40.77 75.43L40.36 75.49C40.365 75.4301 40.365 75.3699 40.36 75.31H40.77C40.7789 75.3361 40.7856 75.3628 40.79 75.39L40.77 75.43ZM37.6 74.92C37.7337 74.7661 37.8977 74.6415 38.0817 74.5539C38.2658 74.4664 38.466 74.4178 38.6697 74.4112C38.8734 74.4046 39.0763 74.4402 39.2657 74.5157C39.455 74.5912 39.6267 74.705 39.77 74.85C39.07 75.34 38.4 75.66 37.62 74.88L37.6 74.92ZM42.21 75.25C42.02 75.31 41.75 75.04 41.44 74.87C42.19 74.33 42.84 73.96 43.72 74.62C43.2965 74.9663 42.7758 75.1725 42.23 75.21L42.21 75.25ZM53.55 68.25C52.98 69.13 52.84 69.18 52.05 68.78L51.27 68.33L51.74 67.87C51.87 67.74 52.01 67.62 52.2 67.46L53.55 68.25ZM52.75 67L53.49 66.29L54.29 66.64L55 67C54.18 68 54.18 68 52.75 67ZM55.56 69.31C54.98 70 54.7 70 53.73 69.31C54.46 68.61 54.63 68.61 55.56 69.3V69.31ZM50.29 68.37C49.38 69.24 49.29 69.24 48.38 68.66C49.11 67.76 49.33 67.72 50.29 68.36V68.37ZM50.67 68.62L52.09 69.33C51.4 70.11 51.15 70.33 49.89 69.27L50.67 68.62ZM52.82 69.62L53.46 69.85L54.07 70.09C53.07 70.84 53.07 70.95 52.07 70.28L52.82 69.62ZM50.7 70.38C49.59 71.23 49.59 71.23 48.64 70.48L49.37 69.69L50.7 70.38ZM52.33 71.09C51.85 71.31 51.49 71.49 51.12 71.62C51.01 71.62 50.86 71.55 50.7 71.5C51.41 70.73 51.41 70.73 52.33 71.11V71.09ZM48.91 71.39C48.27 72.13 48.27 72.13 47.38 71.56C48 70.84 48.16 70.82 48.91 71.41V71.39ZM45.67 71.5C44.76 72.5 44.62 72.5 43.16 71.76L44.63 70.9L45.67 71.5ZM46.67 71.85L47.6 72.34C46.88 73.18 46.71 73.2 45.54 72.59L46.67 71.85ZM43.67 72.77C42.94 73.65 42.11 73.32 41.18 73.02C42.24 72.07 42.6 72.08 43.73 72.79L43.67 72.77ZM45.81 73.4C44.49 74.55 44.53 74.4 43.44 73.75C44.25 73.28 44.94 72.62 45.87 73.42L45.81 73.4ZM41.28 73.81C40.93 74.4 40.93 74.4 39.4 73.9C40.14 73.35 40.73 73.61 41.34 73.83L41.28 73.81ZM45.12 74.88C45.96 74.3 46.7 73.73 47.49 73.27C48.0139 73.0384 48.5601 72.8608 49.12 72.74C49.12 72.66 49.12 72.44 49.06 72.21C49.37 72.01 49.62 71.62 50.17 71.9L49.53 72.47C50.223 72.4614 50.9057 72.301 51.53 72C52.0876 71.724 52.6621 71.4835 53.25 71.28C52.05 72.8 47 75.45 45.18 74.9L45.12 74.88ZM57.63 72.27C56.5534 72.7394 55.4306 73.0947 54.28 73.33C55.06 72.82 55.84 72.33 56.64 71.82C57.11 71.58 57.29 72 57.69 72.29L57.63 72.27ZM58.38 71.79C57.5852 71.4751 56.8586 71.01 56.24 70.42C55.61 70.67 56.08 71.05 56.11 71.32C52.98 73.73 49.55 75.32 48.01 74.94C48.116 74.8588 48.2299 74.7885 48.35 74.73C50.5305 73.8647 52.5567 72.6524 54.35 71.14C54.89 70.7 55.63 70.52 56 69.84C56.0384 69.7796 56.093 69.7313 56.1576 69.7006C56.2222 69.6699 56.2941 69.658 56.3651 69.6664C56.4362 69.6748 56.5034 69.703 56.5591 69.7479C56.6148 69.7927 56.6567 69.8524 56.68 69.92C56.83 70.58 57.35 70.83 57.81 71.17C58.0592 71.3409 58.2731 71.5582 58.44 71.81L58.38 71.79ZM61.66 68.26C61.95 67.98 62.07 67.78 62.18 67.78C62.79 67.78 63.18 68.21 63.68 68.64C62.8 69.28 62.51 68.28 61.72 68.28L61.66 68.26ZM65.47 68.12C65.27 68.54 65.05 68.77 64.47 68.56C64.87 68.23 65.07 68 65.53 68.14L65.47 68.12ZM66.62 67.42L65.88 67.78C66.17 67.25 66.17 67.25 66.68 67.44L66.62 67.42ZM68.11 66.26C67.44 66.98 67.44 66.98 66.97 66.49C67.38 66.31 67.6 65.8 68.17 66.28L68.11 66.26ZM69.73 65.26C68.86 65.98 68.86 65.98 68.34 65.42C69 64.7 69 64.7 69.79 65.31L69.73 65.26ZM71.03 64.26C70.46 64.87 70.46 64.87 69.6 64.36C70.29 63.63 70.29 63.63 71.09 64.28L71.03 64.26ZM72.6 63.05C72.13 63.84 71.97 63.87 70.97 63.33C71.51 62.45 72.11 63.1 72.66 63.07L72.6 63.05ZM73.4 62.39L73.12 62.77L72.01 62.24C72.5 62.187 72.9956 62.2451 73.46 62.41L73.4 62.39ZM74.4 61.39C73.88 61.94 73.64 61.93 71.82 61.28C71.94 61.04 72.05 60.82 72.16 60.62L74.4 61.39ZM75.86 60.05C75.07 60.99 74.96 61.05 73.86 60.53L73.12 60.19C73.93 60.07 74.56 60.72 75.24 60.12C74.87 59.6 74.24 59.79 73.77 59.53C73.2936 59.3177 72.8023 59.1406 72.3 59C72.15 59.3 72.04 59.51 71.95 59.72H70.69L71.5 60.58C71.12 61.23 70.32 61.21 69.71 61.68L70.71 62.68C70.44 63.11 70.11 63.17 69.65 62.87C69.3282 62.7068 68.9938 62.5697 68.65 62.46C68.15 63.46 69.48 63.08 69.48 63.77C69.31 64.06 69.08 64.3 68.61 63.95C68.2901 63.752 67.9558 63.5782 67.61 63.43C67.34 63.95 67.34 63.95 68.28 64.67C67.99 65.4 67.63 65.31 67.15 64.97C66.67 64.63 66.15 64.34 65.7 64.03C65.6442 64.1112 65.6067 64.2035 65.5901 64.3006C65.5735 64.3977 65.5782 64.4973 65.6039 64.5924C65.6296 64.6875 65.6756 64.7759 65.7388 64.8515C65.8021 64.927 65.8809 64.9879 65.97 65.03C66.32 65.27 66.69 65.48 67.06 65.7C66.6 66.52 66.47 66.56 65.77 66.02C65.6 65.89 65.47 65.69 65.28 65.61C65.0946 65.579 64.9054 65.579 64.72 65.61C64.72 65.81 64.72 66.06 64.84 66.18C65.1556 66.462 65.4897 66.7226 65.84 66.96C65.68 67.09 65.56 67.21 65.43 67.33L63.64 65.96C63.5648 66.0372 63.5097 66.1317 63.4795 66.2351C63.4492 66.3385 63.4447 66.4478 63.4664 66.5533C63.4881 66.6588 63.5354 66.7575 63.604 66.8406C63.6726 66.9237 63.7605 66.9887 63.86 67.03C64.18 67.25 64.53 67.44 64.98 67.7L64.23 68.36C63.54 68.02 62.95 67.67 62.97 66.7C62.67 66.87 62.33 66.94 62.17 67.15C62.09 67.303 61.9778 67.4368 61.8409 67.5421C61.7041 67.6474 61.546 67.7216 61.3776 67.7597C61.2092 67.7977 61.0345 67.7987 60.8657 67.7625C60.6969 67.7263 60.538 67.6538 60.4 67.55C60.51 68.01 60.59 68.31 60.65 68.55C61.5147 68.7398 62.2919 69.2111 62.86 69.89C62.6 70.16 62.38 70.21 62.13 69.96C61.64 69.48 61.13 69.02 60.65 68.55H60.49C60.26 68.49 59.99 68.31 59.86 68.66C59.73 69.01 60.03 69.03 60.23 69.18C60.74 69.57 61.23 70.01 61.68 70.41C61.49 70.9 61.24 70.89 60.92 70.67C60.31 70.24 59.7 69.83 59.08 69.43C58.8452 69.3021 58.6012 69.1918 58.35 69.1C58.07 69.73 58.48 69.92 58.81 70.1C59.35 70.43 59.92 70.73 60.69 71.1L59.43 71.61C58.4993 71.0656 57.7244 70.2907 57.18 69.36C57.89 68.81 58.64 68.27 59.36 67.69C59.7411 67.3802 60.1019 67.0462 60.44 66.69C60.69 66.42 60.67 66.4 60.44 65.86C60.3036 65.9658 60.1734 66.0793 60.05 66.2C59.0934 67.262 57.9725 68.1635 56.73 68.87C56.6055 68.9574 56.4571 69.0042 56.305 69.0042C56.1529 69.0042 56.0045 68.9574 55.88 68.87C55.54 68.67 55.18 68.51 54.8 68.3C54.9098 68.063 55.0846 67.862 55.3041 67.7203C55.5236 67.5787 55.7788 67.5023 56.04 67.5C56.4652 67.5932 56.8734 67.7517 57.25 67.97L57.35 67.8L56.5 67C56.65 66.71 57.14 66.46 56.71 65.91L55.59 66.7L54 65.88C54.7 65.23 55.34 64.62 56 64.01C56.1013 63.8888 56.2421 63.8073 56.3976 63.7799C56.5532 63.7524 56.7134 63.7808 56.85 63.86L58.31 64.7C57.75 65.29 57.25 65.57 56.53 65.16C56.3976 65.0554 56.2338 64.9985 56.065 64.9985C55.8962 64.9985 55.7324 65.0554 55.6 65.16C56.1713 65.5215 56.7819 65.8167 57.42 66.04C58 66.17 58.42 66.85 59.2 66.53C58.97 65.96 58.32 66.15 58.04 65.73C58.46 65.36 58.84 64.94 59.47 65.4C59.73 65.59 59.98 65.52 60.2 65.17L59.53 64.7C60.1208 63.8025 60.7901 62.9591 61.53 62.18C61.79 61.99 62.14 61.7 61.89 61.18C61.7 61.27 61.46 61.31 61.34 61.46C60.6094 62.0722 59.9667 62.7822 59.43 63.57C59.08 64.27 58.77 64.34 58.1 63.96C57.73 63.76 57.38 63.53 57 63.29C57.7 62.56 58.33 61.94 58.92 61.29C59.11 61.07 59.43 60.74 58.86 60.42C58.28 61.04 57.71 61.69 57.11 62.29C56.03 63.35 54.94 64.4 53.83 65.42C53.6135 65.5713 53.3736 65.6862 53.12 65.76C52.9955 66.0182 52.8447 66.2628 52.67 66.49C52.27 66.88 51.84 67.24 51.41 67.59C50.8 68.1 50.8 68.1 49.99 67.49C50.3524 67.2504 50.6877 66.9721 50.99 66.66C51.21 66.38 51.76 66.13 51.3 65.53C50.89 65.92 50.53 66.29 50.14 66.62C49.75 66.95 49.65 67.21 49.2 67.12C49.1592 67.1225 49.1194 67.1336 49.0832 67.1526C49.0471 67.1715 49.0153 67.1979 48.99 67.23C48.92 67.97 48.15 67.94 47.85 68.39L46.78 67.96C47.1 69.1 48.22 68.89 48.78 69.48C48.61 69.94 48.12 69.99 47.78 70.24C47.0365 69.8887 46.2591 69.6139 45.46 69.42C45.8 70.13 46.59 70.18 47.14 70.65C47.1017 70.751 47.0415 70.8422 46.9637 70.9171C46.886 70.992 46.7925 71.0487 46.6902 71.0832C46.5878 71.1176 46.4791 71.1289 46.3719 71.1162C46.2646 71.1036 46.1615 71.0673 46.07 71.01C45.763 70.8725 45.4686 70.7085 45.19 70.52C44.989 70.3762 44.7418 70.312 44.4962 70.3397C44.2506 70.3674 44.024 70.4851 43.86 70.67C43.72 70.8296 43.5544 70.9648 43.37 71.07C41.82 71.91 40.29 72.76 38.72 73.56C37.077 74.4176 35.3189 75.0339 33.5 75.39C33.41 75.39 33.31 75.39 33.23 75.39C32.63 75.55 31.99 75.94 31.46 75.83C30.8359 75.5696 30.2609 75.2043 29.76 74.75L28.95 74.16C29.88 73.57 30.23 73.57 30.95 74.16C31.2 74.35 31.4 74.59 31.65 74.76C31.9 74.93 32.07 74.98 32.06 74.59C31.9946 74.4432 31.9106 74.3054 31.81 74.18C31.56 73.92 31.28 73.7 30.93 73.4L32.56 72.66L33.49 73.36C33.05 73.87 32.21 73.86 32.06 74.59C33.9305 73.9589 35.7437 73.1693 37.48 72.23C38.54 71.66 39.58 71.06 40.61 70.45C40.8712 70.258 41.1155 70.0439 41.34 69.81C40.79 69.55 40.47 69.88 40.14 70.04C39.81 70.2 39.44 70.15 39.14 69.69L41.4 68.39C41.78 68.39 42.15 69.19 42.65 68.44L42 67.88L42.76 67.27L43.83 67.8L43.27 68.42C43.495 68.4279 43.72 68.4077 43.94 68.36C45.5077 67.6303 46.9734 66.6991 48.3 65.59C48.64 65.28 49.04 65.05 49.41 64.77C49.51 64.69 49.59 64.57 49.76 64.39C49.5775 64.378 49.3945 64.4038 49.2225 64.4658C49.0504 64.5277 48.893 64.6245 48.76 64.75C47.67 65.46 46.57 66.14 45.51 66.89C45.2374 67.1033 44.9012 67.2192 44.555 67.2192C44.2088 67.2192 43.8726 67.1033 43.6 66.89C44.28 66.38 44.93 65.89 45.6 65.4C46.27 64.91 46.91 64.4 47.6 63.84C47.92 63.56 47.92 63.48 47.88 62.94C47.39 62.94 47.12 63.28 46.8 63.54C45.71 64.39 44.63 65.26 43.53 66.11C43.3065 66.2569 43.0725 66.3873 42.83 66.5L41.62 65.62C42.4694 64.5917 43.479 63.707 44.61 63C45.83 62.3376 46.9454 61.4985 47.92 60.51C48.01 60.4 48.15 60.29 48.18 60.15C48.1956 60.0801 48.1947 60.0076 48.1773 59.9382C48.16 59.8687 48.1266 59.8043 48.08 59.75C48.0189 59.7158 47.95 59.6979 47.88 59.6979C47.81 59.6979 47.7411 59.7158 47.68 59.75C47.3337 60.1428 46.9665 60.5167 46.58 60.87C45.17 61.97 43.73 63.03 42.28 64.08C41.28 64.82 40.21 65.51 39.17 66.23L37.35 64.83C37.19 65.95 38.23 65.96 38.52 66.53C37.84 67.06 37.64 67.05 37.03 66.53C36.6818 66.2739 36.3177 66.0401 35.94 65.83C35.87 66.38 35.87 66.38 36.94 67.27C36.81 67.62 36.55 67.77 36.23 67.6C35.57 67.22 34.95 66.79 34.23 66.33C35.12 65.62 35.92 64.97 36.74 64.33C37.74 63.54 38.74 62.81 39.74 61.99C40.1512 61.5735 40.5166 61.1143 40.83 60.62C40.8605 60.5489 40.8763 60.4724 40.8763 60.395C40.8763 60.3176 40.8605 60.2411 40.83 60.17C38.454 62.4033 35.8763 64.4119 33.13 66.17C30.4341 67.9948 27.6362 69.6642 24.75 71.17L24.09 70.72C24.64 70.42 25.09 70.16 25.6 69.89C26.11 69.62 26.39 69.41 26.77 69.14C27.15 68.87 27.72 68.47 28.18 68.14C28.3919 67.9448 28.5891 67.7342 28.77 67.51L28.65 67.35C28.4942 67.3754 28.3427 67.4226 28.2 67.49C26.97 68.26 25.8 69.15 24.51 69.79C22.89 70.61 21.18 71.24 19.51 71.93C19.2697 71.9808 19.0255 72.011 18.78 72.02C18.16 72.16 17.55 72.32 16.78 72.5C17.35 73.32 18.01 72.86 18.6 72.92V73.54L16.35 74.03C15.997 74.4643 15.6127 74.872 15.2 75.25C14.54 75.76 13.82 76.18 13.12 76.64C13.02 76.71 12.87 76.75 12.82 76.84C12.1 78 10.82 77.9 9.76 78.01C8.71352 78.0345 7.66677 77.9744 6.63 77.83L11.85 77.34C11.74 76.75 11.42 76.81 11.06 76.85C9.62 77 8.17 77.12 6.73 77.27C6.45538 77.3163 6.18462 77.3832 5.92 77.47C6.08 77.64 6.13 77.73 6.21 77.76C6.35505 77.7905 6.50209 77.8105 6.65 77.82C6.26564 77.7945 5.87962 77.8147 5.5 77.88C5.04796 78.0367 4.6125 78.2377 4.2 78.48C3.70206 78.876 3.10903 79.1346 2.48 79.23C2.6442 79.0604 2.81781 78.9001 3 78.75C3.93 78.09 4.87 77.43 5.82 76.75C6.01814 76.6105 6.24889 76.5244 6.49 76.5C7.34745 76.3526 8.22746 76.4074 9.06 76.66C9.64 76.91 10.13 76.52 10.67 76.49C10.6971 76.4859 10.7229 76.4756 10.7454 76.46C10.7679 76.4444 10.7866 76.4239 10.8 76.4C11.06 75.46 11.9 75 12.52 74.4C13.1482 73.7336 13.816 73.1058 14.52 72.52C14.9461 72.232 15.3941 71.9779 15.86 71.76L16.62 72.18C17.1206 72.0335 17.6035 71.8323 18.06 71.58C18.9329 71.1384 19.8664 70.8284 20.83 70.66C21.7634 70.3453 22.6782 69.9781 23.57 69.56C24.1277 69.2463 24.6594 68.8885 25.16 68.49C25.7347 68.1335 26.2828 67.7358 26.8 67.3C27.8 66.3 28.8 65.21 29.8 64.18C29.57 63.77 29.33 63.92 29.15 64.08C28.47 64.66 27.79 65.24 27.15 65.85C26.51 66.46 26.01 66.97 25.45 67.54L25.28 67.41C25.3883 67.2225 25.5086 67.0421 25.64 66.87C26.17 66.31 26.72 65.76 27.25 65.21C28.3379 63.9663 29.2621 62.5884 30 61.11C30.638 60.0124 31.2155 58.8807 31.73 57.72C32.59 55.78 33.35 53.79 34.22 51.85C34.99 50.14 35.85 48.47 36.67 46.78C37.16 45.78 37.61 44.78 38.13 43.78C38.89 42.3 39.61 40.78 40.51 39.39C42.03 37.07 43.74 34.87 45.26 32.55C46.66 30.4 48.26 28.43 49.76 26.31C51.26 24.19 52.53 22.31 53.85 20.31C54.55 19.22 55.14 18.06 55.75 16.92C56.27 15.92 56.75 15 57.24 14.03C57.41 13.68 57.55 13.31 57.71 12.93C58.08 12.99 58.17 13.19 58.03 13.46L56.14 17L55.92 17.41L54.5 20.23C54 21.23 53.5 22.23 52.99 23.23C52.5838 24.0192 52.1261 24.7808 51.62 25.51C50.81 26.66 50.12 27.9 49.37 29.13C49.4414 29.1881 49.5258 29.2281 49.616 29.2465C49.7063 29.2649 49.7996 29.2611 49.8881 29.2356C49.9765 29.21 50.0575 29.1634 50.124 29.0997C50.1905 29.0361 50.2406 28.9573 50.27 28.87C50.97 27.61 52.07 26.57 52.44 25.12C52.4677 24.9973 52.5262 24.8838 52.61 24.79C53.4255 23.9461 54.1007 22.9772 54.61 21.92C55.1237 21.0331 55.5877 20.1184 56 19.18C56.82 17.48 57.6 15.78 58.41 14.08C58.41 13.98 58.57 13.92 58.82 13.69C58.36 15.95 57.04 17.59 56.3 19.48C55.56 21.37 54.72 23.2 53.89 25.13C54.05 25.13 54.22 25.13 54.31 25.06C54.6873 24.785 54.9932 24.4236 55.202 24.006C55.4108 23.5884 55.5164 23.1268 55.51 22.66C55.4894 22.4947 55.5066 22.327 55.5603 22.1693C55.614 22.0117 55.7028 21.8683 55.82 21.75C56.712 20.7168 57.3612 19.4969 57.72 18.18C57.91 17.61 58.32 17.09 58.19 16.43C58.1824 16.4005 58.1824 16.3695 58.19 16.34L59.45 14.59C59.52 14.71 59.69 14.86 59.66 14.96C59.5772 15.5102 59.3905 16.0396 59.11 16.52C58.9344 16.7861 58.8058 17.0804 58.73 17.39C58.38 18.39 58 19.39 57.56 20.3C56.4533 22.7667 55.3 25.2167 54.1 27.65C53.53 28.78 52.86 29.85 52.23 30.95L50.09 34.74C50.6832 34.5057 51.1752 34.0703 51.48 33.51C52.5959 31.808 53.5981 30.0342 54.48 28.2C55.27 26.39 56.26 24.66 57.15 22.89C57.33 22.53 57.44 22.14 57.61 21.78C57.78 21.42 57.92 21.2 58.08 20.9C59.02 21.33 59.27 22.25 59.92 22.9C59.83 23.23 59.73 23.57 59.6 24.01L57.86 22.45L57.71 22.54C57.741 22.7157 57.8018 22.8849 57.89 23.04C58.15 23.34 58.48 23.59 58.74 23.89C59.41 24.66 59.42 24.89 58.87 25.84C58.2 25.36 58.2 25.36 58.26 24.52L57 24.56C57.65 25.13 57.32 25.64 57 26.19C56.77 26.59 56.61 27.02 56.36 27.56C57.24 27.24 57.59 27.89 58.01 28.34C58.69 29.06 59.32 29.83 59.94 30.6C60.1434 30.9028 60.324 31.2203 60.48 31.55C60.65 31.84 60.48 31.99 60.26 32.24L56.9 28.8L56.76 28.87C56.76 28.96 56.76 29.1 56.81 29.15C57.55 29.77 57.46 30.47 56.95 31.27L56.24 30.67C56.07 31.2 56.58 31.33 56.71 31.76L56.38 32.52C56.26 32.77 56.15 33.02 56.03 33.28L55.38 33.12C56.07 34.22 55.38 34.96 54.93 35.83L54.09 35.09C54.1922 35.6453 54.4526 36.1592 54.84 36.57C55.5059 37.5375 56.2271 38.4657 57 39.35C57.1913 39.5228 57.3086 39.7628 57.3272 40.0199C57.3458 40.277 57.2644 40.5314 57.1 40.73L56.81 41.18C55.6665 40.1124 54.6098 38.9554 53.65 37.72L53 39.19L53.74 38.67C53.8039 38.6867 53.8647 38.7138 53.92 38.75L56.13 41.82C56.4 42.19 56.24 42.45 55.83 42.75L53.15 39.67L52.99 39.79C53.7489 41.1373 54.5801 42.4425 55.48 43.7L55.03 44.19L52.2 41.19C52.27 42.03 52.94 42.47 53.33 43.08C53.72 43.69 54.26 44.31 54.72 44.9C50.35 52.19 45.44 59 38.9 64.54C39.1411 64.4635 39.3726 64.3594 39.59 64.23C40.284 63.7353 40.9516 63.2046 41.59 62.64C42.73 61.64 43.87 60.54 44.91 59.4C46.11 58.08 47.22 56.68 48.34 55.28C49.46 53.88 50.44 52.69 51.4 51.28C52.36 49.87 53.4 48.18 54.4 46.63C54.96 45.77 55.56 44.94 56.07 44.06C56.58 43.18 56.88 42.47 57.28 41.68C57.85 40.51 58.48 39.38 58.98 38.18C59.48 36.98 59.76 35.9 60.15 34.76C60.74 33.06 61.39 31.39 61.91 29.67C62.54 27.6 63.11 25.5 63.61 23.39C63.8957 22.0701 64.1027 20.7344 64.23 19.39C64.35 18.32 64.33 17.23 64.39 15.96L64.96 16.49C64.91 16.09 64.87 15.81 64.82 15.49L65.69 15.22C65.79 16.22 65.9 17.07 65.95 17.96C65.9054 19.4749 65.7348 20.9834 65.44 22.47C65.24 24.1 64.89 25.7 64.62 27.33C64.62 27.61 64.41 27.92 64.74 28.21C65.1224 27.6392 65.3593 26.9834 65.43 26.3C65.7 24.49 65.85 22.67 66.19 20.88C66.4194 19.2943 66.4998 17.6907 66.43 16.09C66.4481 15.7902 66.4916 15.4925 66.56 15.2C67.02 15.2 66.98 15.46 66.98 15.69C66.98 16.37 66.98 17.05 66.98 17.69C66.9847 18.0256 67.0181 18.3601 67.08 18.69C67.2559 19.4269 67.2282 20.1977 67 20.92C66.8629 21.4622 66.8023 22.021 66.82 22.58C66.76 23.75 66.73 24.93 66.67 26.11C66.67 26.47 66.67 26.91 66.04 26.82C66.1959 27.0583 66.3172 27.3176 66.4 27.59C66.3852 27.8348 66.3277 28.0751 66.23 28.3C65.59 30.4 65.02 32.53 64.23 34.6C63.78 35.86 63.48 37.15 63.09 38.41C62.62 39.91 61.91 41.34 61.31 42.8C61.19 43.1 61.05 43.4 60.87 43.8C61.0652 43.7362 61.2424 43.6267 61.3868 43.4805C61.5311 43.3344 61.6385 43.156 61.7 42.96C62.67 41.1241 63.441 39.1898 64 37.19C64.2918 36.1497 64.6458 35.1279 65.06 34.13C65.25 33.61 65.46 33.13 65.67 32.54C65.8497 32.6093 66.0236 32.6929 66.19 32.79C67.19 33.43 68.28 34.1 69.33 34.79C69.85 35.11 69.86 35.1 69.6 35.89C68.3209 35.3117 67.0844 34.6434 65.9 33.89C66.08 34.46 66.07 34.46 67.48 35.45C68.06 35.85 68.67 36.23 69.3 36.64L69.17 37.54C67.73 37.16 66.78 35.91 65.27 35.8C66.38 36.56 67.46 37.34 68.59 38.07C68.6942 38.1126 68.7867 38.1792 68.86 38.2646C68.9334 38.3499 68.9854 38.4515 69.0117 38.5609C69.0381 38.6703 69.0381 38.7843 69.0117 38.8937C68.9853 39.0031 68.9333 39.1047 68.86 39.19L66.51 38C66.7706 38.5721 67.2044 39.0478 67.75 39.36C67.9 39.47 68.09 39.52 68.25 39.62C68.75 39.95 68.75 39.97 68.43 40.74C67.65 40.27 66.87 39.82 66.07 39.35C66.07 39.88 66.42 40.2 68.2 41.52C68.2131 41.6296 68.2131 41.7404 68.2 41.85C68.1402 41.9512 68.0734 42.0481 68 42.14C67.23 41.91 66.83 41.14 65.88 40.97C66.2813 41.5487 66.7667 42.0643 67.32 42.5C67.8 42.87 67.79 42.88 67.47 43.65L65.16 42.15C65.26 42.45 65.27 42.64 65.37 42.73C65.88 43.17 66.37 43.59 66.94 44.01C67.25 44.26 67.41 44.51 67 44.88L65.89 44.09L65.71 44.28L66.77 45.59C66.77 45.82 66.71 46.05 66.66 46.36L67.8 46.05C67.6541 45.5674 67.6412 45.0544 67.7626 44.5651C67.8841 44.0758 68.1354 43.6283 68.49 43.27C68.49 43.19 68.64 43.11 68.63 43.04C68.42 41.85 69.17 40.86 69.33 39.75C69.49 38.64 69.71 37.81 69.92 36.84C69.9581 36.5938 70.0322 36.3546 70.14 36.13C70.6273 35.006 70.9636 33.8223 71.14 32.61C71.3807 31.5939 71.5676 30.5658 71.7 29.53C71.8358 28.2012 71.8959 26.8657 71.88 25.53C71.88 23.53 71.76 21.46 71.67 19.42C71.67 18.75 71.54 18.09 71.46 17.42C71.96 17.42 72.01 17.75 72.05 18C72.3033 19.96 72.5467 21.92 72.78 23.88C72.775 23.9733 72.775 24.0667 72.78 24.16C72.9674 25.5617 73.041 26.9764 73 28.39C72.9861 28.579 73.018 28.7685 73.0928 28.9425C73.1676 29.1166 73.2833 29.2701 73.43 29.39C73.6887 28.7146 73.7545 27.9806 73.62 27.27C73.52 25.47 73.4 23.68 73.28 21.89C73.28 21.74 73.28 21.59 73.28 21.36H74.39C74.5024 22.6891 74.7916 23.9973 75.25 25.25H75.44C75.44 24.64 75.49 24.02 75.52 23.25C76.1067 24.5855 76.4293 26.0219 76.47 27.48C75.89 28.13 75.29 27.14 74.61 27.48C75.17 28.12 75.96 27.88 76.61 28.2C76.88 30.03 77.16 31.89 77.44 33.81L76.44 33.9L76.38 34.07L77.22 34.4C77.22 34.88 77.22 35.4 77.22 35.96H76.11C76.19 36.72 76.87 36.36 77.11 36.71C77.03 37 76.96 37.32 76.86 37.66C77.61 37.77 77.38 37.04 77.73 36.82L80.05 36.96C79.97 37.49 79.9 37.96 79.81 38.58L77.37 38.22C77.67 38.78 78.11 38.73 78.46 38.8C78.81 38.87 79.25 38.92 79.75 39C79.64 39.48 79.55 39.89 79.43 40.38L78.04 40.17C78.29 40.8 78.86 40.57 79.14 40.86C79.33 41.54 78.91 42.02 78.52 42.58L77.84 42.48C77.8159 42.5213 77.7958 42.5649 77.78 42.61L78.53 43.17L77.74 45.83L76.16 45.47C76.52 45.93 77.16 46.23 78.7 46.69C78.5269 48.1992 78.0687 49.6617 77.35 51C76.5464 52.7085 75.5391 54.3135 74.35 55.78C73.8789 56.481 73.4738 57.2242 73.14 58C74.14 58.57 75.55 58.42 76.5 59.36C76.28 59.62 76.07 59.84 75.88 60.08L75.86 60.05ZM60.71 30.35L57.31 27.07C57.49 26.68 57.67 26.28 57.87 25.87C58.74 26.26 58.64 26.87 58.4 27.71L59.13 27.28L61.22 29.74C61.22 29.88 61.09 30.14 60.99 30.41C60.8938 30.4075 60.7988 30.3871 60.71 30.35ZM59.35 26.63C59.54 26.18 59.69 25.81 59.85 25.44C60.3335 25.7918 60.6855 26.2951 60.85 26.87C60.8989 26.9803 60.9704 27.0791 61.06 27.16C61.24 27.35 61.56 27.51 61.59 27.71C61.5841 28.1039 61.5201 28.4948 61.4 28.87L59.35 26.63ZM61.55 24.93C62.33 25.5 62.34 25.53 62.03 26.46C61.19 26.08 61.16 26 61.55 24.93ZM60.8 25.21C60.11 24.68 60.11 24.68 60.49 23.66C61.33 24.09 60.83 24.66 60.8 25.21ZM62 22.59C62.1641 22.6886 62.3071 22.8187 62.4206 22.9728C62.5342 23.1269 62.6161 23.302 62.6617 23.4879C62.7072 23.6739 62.7155 23.867 62.686 24.0561C62.6566 24.2453 62.59 24.4267 62.49 24.59C62.3037 24.5145 62.138 24.3958 62.0065 24.2437C61.875 24.0916 61.7815 23.9105 61.7337 23.7153C61.6858 23.52 61.685 23.3162 61.7313 23.1206C61.7776 22.9249 61.8697 22.7431 62 22.59ZM61.31 23.12C60.57 23.06 60.75 22.36 60.31 22.12C59.9636 21.8808 59.6298 21.6238 59.31 21.35L59.99 20.35C60.58 20.73 60.25 21.35 60.46 21.79L60.94 21.48C61.77 21.93 61.21 22.55 61.34 23.12H61.31ZM59.21 20.26C59.1168 20.4734 59.0099 20.6805 58.89 20.88C58.71 20.58 58.46 20.34 58.51 20.2C58.7285 19.3205 59.1156 18.4919 59.65 17.76C59.71 18.06 59.82 18.25 59.76 18.36C59.5266 18.9753 59.3525 19.6116 59.24 20.26H59.21ZM60.45 18.84C60.82 19.28 60.6 19.5 60.32 19.72C60.39 19.47 60.42 19.22 60.48 18.84H60.45ZM62.21 21C63.11 21.62 63.11 21.62 62.91 22.36C62.36 22 61.93 21.67 62.21 21ZM61.5 21C61.16 20.54 61.4 20.26 61.5 19.79C61.84 20.32 61.62 20.57 61.5 21ZM62.82 18.6C63.74 19.06 63.33 19.76 63.28 20.4C62.36 20 62.34 19.89 62.82 18.61V18.6ZM61.82 19.3C61.31 18.66 61.82 18.18 61.82 17.57C62.23 18.2 62.23 18.24 61.8 19.31L61.82 19.3ZM60.82 18.3C60.5 17.56 60.99 17.22 61.01 16.75L61.32 16.84C61.14 17.31 61 17.75 60.79 18.34L60.82 18.3ZM59.97 17.4C59.87 17.2 59.82 17.14 59.83 17.1C59.96 16.75 60.1 16.4 60.3 15.89C60.5 16.63 60.12 16.94 59.94 17.44L59.97 17.4ZM63.42 16.59C63.42 16.93 63.42 17.27 63.42 17.7C63 17.29 63 17.29 63.39 16.63L63.42 16.59ZM62.09 16.86C62.16 16.39 62.22 15.99 62.28 15.51C62.69 16.31 62.67 16.44 62.06 16.9L62.09 16.86ZM61.52 15.96H61.28C61.28 15.64 61.37 15.32 61.43 14.96C61.83 15.35 61.44 15.67 61.49 16L61.52 15.96ZM56.78 34.43C56.6618 34.327 56.581 34.1877 56.5502 34.034C56.5195 33.8802 56.5405 33.7206 56.61 33.58C56.76 33.24 56.87 32.89 57.09 32.29C57.63 32.98 58.09 33.5 58.45 34.02C58.6648 34.303 58.865 34.5967 59.05 34.9C59.39 35.45 59.05 35.9 58.75 36.44L56.78 34.43ZM58.45 37.6C58.3 38.06 58.15 38.51 57.95 39.14L55.04 36.14C55.34 35.83 55.56 35.62 55.76 35.39C55.96 35.16 56.11 34.96 56.31 34.71C57.1712 35.5545 57.8935 36.5299 58.45 37.6ZM59.06 33.67C58.82 33.47 58.62 33.24 58.38 33.05C57.56 32.4 57.1 31.69 58 30.63L59.71 32.63C60.07 33.06 59.86 33.49 59.66 34.03C59.44 33.91 59.23 33.8 59.06 33.67ZM79.36 23.84C80.54 23.84 80.66 23.97 81.01 25.54L77 25.3C76.92 24.74 76.83 24.23 76.76 23.74C76.9491 23.6325 77.1588 23.5663 77.3753 23.5457C77.5918 23.5251 77.8102 23.5506 78.0162 23.6205C78.2221 23.6904 78.4109 23.8031 78.5702 23.9513C78.7294 24.0994 78.8554 24.2796 78.94 24.48L79.36 23.84ZM81.17 24.06L81.79 23.94L82.63 25.65H81.63C81.45 25 81.32 24.58 81.17 24.06ZM83.17 24.93C82.75 24.51 82.81 24.21 83.17 23.93C83.3 24.32 83.3 24.32 83.13 24.93H83.17ZM84.83 24.58C85.05 25.58 85.05 25.58 84.37 25.58C84.24 25.18 84 24.73 84.79 24.58H84.83ZM81 28.06L77.3 27.81C77.24 27.1 77.17 26.47 77.1 25.7L81.33 25.96C81.47 26.3072 81.5133 26.6858 81.4552 27.0556C81.397 27.4254 81.2397 27.7725 81 28.06ZM83.16 27.19C83.16 27.47 83.16 27.74 83.16 28.06C82.9735 28.07 82.7865 28.07 82.6 28.06C81.79 27.99 81.77 27.94 81.84 27.06C81.8608 26.727 81.8608 26.393 81.84 26.06C83 26.11 83.07 26.18 83.12 27.19H83.16ZM81 30.37C80.78 30.37 80.56 30.04 80.29 29.81C80.1 30.22 79.68 30.24 79.21 30.15C78.74 30.06 78.12 29.98 77.53 29.89C77.44 29.39 77.35 28.89 77.25 28.42C77.928 28.2384 78.642 28.2384 79.32 28.42C79.96 28.42 80.6 28.6 81.25 28.69L81.6 29.57H81.79C81.86 29.28 81.93 29 81.99 28.74C82.052 28.7029 82.1195 28.6759 82.19 28.66C83.5 28.78 83.55 28.87 83.19 30.49C82.44 30.49 82.44 30.49 82.04 30.04C81.7129 30.2042 81.3619 30.3155 81 30.37ZM81.75 32.42L80.41 32.48C80.49 31.94 80.56 31.42 80.65 30.81L81.75 30.97V32.42ZM82.55 31.11L83.28 31.35C83.28 31.77 83.28 32.16 83.28 32.64L82.39 32.58C82.37 32.07 82.44 31.6 82.51 31.11H82.55ZM78.49 32.19C78.05 32.11 77.75 31.93 77.79 31.4C77.7606 31.0626 77.7037 30.7282 77.62 30.4L79.88 30.73C79.9134 30.8308 79.9368 30.9346 79.95 31.04C79.85 32.34 79.73 32.44 78.45 32.19H78.49ZM80.8 32.97C81.55 33.13 82.32 33.2 83.13 33.32C83.13 33.92 83.06 34.32 83.03 34.84L80.65 34.27C79.7429 34.4445 78.8046 34.3506 77.95 34C77.95 33.51 77.95 33 77.95 32.6C79.17 32.53 79.5 32.68 79.76 33.45C79.8647 33.2857 80.0152 33.1557 80.1928 33.0757C80.3705 32.9958 80.5676 32.9695 80.76 33L80.8 32.97ZM81.49 36.37C81.4377 36.3917 81.3816 36.4029 81.325 36.4029C81.2684 36.4029 81.2123 36.3917 81.16 36.37C81.1124 36.3406 81.0716 36.3012 81.0406 36.2546C81.0095 36.208 80.9889 36.1553 80.98 36.1C80.98 35.74 80.98 35.38 81.05 35.02L81.27 34.87C81.44 35.01 81.75 35.15 81.75 35.29C81.7072 35.6635 81.6059 36.0279 81.45 36.37H81.49ZM82.61 35.47C83 36.06 83 36.12 82.46 36.53C82.47 36.2 82.52 35.86 82.57 35.47H82.61ZM80.23 36.47L77.86 36.25C77.86 35.68 77.91 35.19 77.94 34.61L80.45 34.98C80.34 35.41 80.27 35.88 80.19 36.46L80.23 36.47ZM81.32 38.27C81.32 38.57 81.13 38.8 80.67 38.56C80.78 38.08 80.9 37.56 81.03 37.02C81.65 37.4 81.31 37.87 81.28 38.26L81.32 38.27ZM82.32 37.57C82.94 37.84 82.52 38.35 82.68 38.82C81.94 38.6 81.94 38.6 82.25 37.56L82.32 37.57ZM82.53 39.57C82.39 39.99 82.23 40.46 82.05 40.97L80.17 40.56C80.2404 40.2391 80.3272 39.922 80.43 39.61C80.49 39.45 80.66 39.22 80.75 39.24C80.9319 39.3034 81.0917 39.418 81.21 39.57C81.29 39.65 81.3 39.78 81.36 39.93C81.71 39.86 81.81 39.09 82.46 39.56L82.53 39.57ZM80.91 41.4C80.69 41.93 80.48 42.46 80.25 43.03L79.45 42.91C79.27 41.2 79.54 40.91 80.84 41.39L80.91 41.4ZM80.24 45.4L81 45.72C80.81 46.19 80.72 46.66 79.95 46.44C80 46.1 80.06 45.8 80.17 45.39L80.24 45.4ZM78.73 46.13C78.6796 46.0851 78.6399 46.0294 78.614 45.9671C78.588 45.9048 78.5764 45.8374 78.58 45.77C78.58 45.24 78.84 45.13 79.58 45.34C79.4549 45.6 79.3112 45.8507 79.15 46.09C79.0818 46.1458 78.9978 46.1787 78.9098 46.184C78.8219 46.1894 78.7345 46.167 78.66 46.12L78.73 46.13ZM77.52 58.13C77.25 58.65 77.08 58.82 76.64 58.58C75.9928 58.2297 75.3249 57.9192 74.64 57.65C74.33 57.52 74.38 57.38 74.49 57.2L77.52 58.13ZM78.36 57C77.87 57.7 77.55 57.72 76.61 57.12C77.1 56.37 77.38 56.35 78.36 57ZM78.74 55.24L79.36 55.44C79.36 55.44 79.36 55.44 79.52 55.56L79.02 56.29L77.57 55.91C78.06 55 78.06 55 78.74 55.23V55.24ZM80.85 54L80 55L78.59 54.43C79.09 53.34 79.35 53.29 80.85 54ZM81.78 52.58L81.13 53.4L79.61 52.86L80.13 51.95C80.7316 51.9778 81.309 52.1948 81.78 52.57V52.58ZM82.78 50.72L82.16 51.89L81.28 51.64C81.05 51.56 80.82 51.45 80.6 51.36C81.19 50.06 81.39 50 82.83 50.71L82.78 50.72ZM83.69 49.14L83.26 50.06L82.42 49.83L81.74 49.61C82.06 48.69 82.55 48.57 83.74 49.13L83.69 49.14ZM84.6 47.14C84.38 47.59 84.22 47.93 84.01 48.34L82.54 48L83.15 46.77L84.6 47.14ZM85.16 45.8L84.69 46.67C84.52 46.08 84.86 45.93 84.97 45.67L85.16 45.8ZM86.29 43L84.78 42.77C84.4494 42.7078 84.1155 42.6644 83.78 42.64C83.5209 42.6594 83.2671 42.7236 83.03 42.83C83.03 42.83 83.03 43.12 83.03 43.15C83.31 43.32 83.71 43.63 83.89 43.54C84.62 43.17 85.25 43.54 85.89 43.64C85.78 44.48 85.78 44.48 85.31 44.96C84.89 44.63 85.31 44.13 85.05 43.76C84.41 43.68 84.57 44.37 84.21 44.65H83.21C82.95 44.65 82.64 44.65 82.71 45.03C82.7547 45.1335 82.8218 45.2258 82.9066 45.3002C82.9913 45.3746 83.0915 45.4292 83.2 45.46C83.5023 45.4952 83.8077 45.4952 84.11 45.46C84.05 46.24 84.03 46.25 83.48 46.17L81.84 46C81.84 46.58 81.84 46.58 82.32 47C82.24 47.2 82.2 47.5 82.04 47.63C81.8245 47.7728 81.6508 47.9702 81.5366 48.2021C81.4224 48.4341 81.3718 48.6921 81.39 48.95C81.39 49.13 81.02 49.38 80.78 49.52C80.567 49.5884 80.3436 49.6189 80.12 49.61C79.79 50.18 80.34 50.19 80.53 50.44L80.12 51.11L79 50.93C78.8806 50.943 78.7632 50.9699 78.65 51.01C78.65 51.26 78.65 51.51 78.71 51.8L79.6 51.7C79.5825 51.8968 79.5235 52.0876 79.427 52.2599C79.3305 52.4323 79.1986 52.5823 79.04 52.7C78.69 52.61 78.24 52.2 77.94 52.7C77.64 53.2 78.21 53.29 78.53 53.56C78.24 54.02 77.95 54.29 77.43 54.16C77.3119 54.1299 77.1881 54.1299 77.07 54.16C76.9931 54.171 76.9208 54.2032 76.8611 54.2528C76.8014 54.3025 76.7567 54.3677 76.7318 54.4412C76.7069 54.5148 76.7029 54.5938 76.7203 54.6695C76.7376 54.7452 76.7756 54.8146 76.83 54.87C76.8694 54.9321 76.9297 54.9782 77 55C77.14 55.06 77.29 55.1 77.45 55.16C77.32 55.68 77.05 55.84 76.52 55.65C75.99 55.46 75.9 55.48 75.79 56.17L76.58 56.41C76.09 57.48 75.4 56.59 74.65 56.72C74.7577 56.4415 74.8847 56.1708 75.03 55.91C75.65 55.03 76.36 54.2 76.89 53.27C77.63 51.98 78.25 50.64 78.89 49.27C78.972 48.9748 79.0322 48.674 79.07 48.37C79.1853 47.9883 79.3325 47.617 79.51 47.26C79.66 46.96 79.91 47.03 80.18 47.26C80.18 47.96 79.65 48.46 79.39 49.13L80 49.22C80.4727 48.6692 80.845 48.0396 81.1 47.36C81.2419 46.702 81.3255 46.0327 81.35 45.36L79.92 44.57L78.92 44.81C79.03 44.26 79.11 43.89 79.22 43.38L82.22 44.38C82.22 43.73 82.22 43.73 80.9 43.15L81.3 41.54C81.76 41.45 81.91 41.66 81.84 42.09C81.77 42.52 81.52 42.9 81.84 43.34C82.54 43.14 82.31 42.46 82.5 42.09C83.875 41.8371 85.2789 41.7798 86.67 41.92C86.53 42.25 86.42 42.61 86.29 43ZM87 40.15C86.93 40.58 86.88 40.95 86.81 41.39L86 41.15C86.06 40.79 86.1 40.46 86.17 40.04L87 40.15ZM87.15 39.51L86.34 39.44C86.49 38.6 86.49 38.6 87.34 38.58L87.15 39.51ZM85.27 39.28C85.14 39.28 84.91 39.06 84.93 38.96C84.93 38.53 85.31 38.59 85.73 38.66C85.73 39.05 85.71 39.35 85.25 39.28H85.27ZM84.27 39.11L83.27 39.54L84.14 40.68C84.75 40.8 84.58 39.68 85.4 40C85.35 40.31 85.3 40.65 85.25 41L82.78 41.15C82.78 41.03 82.7 40.92 82.78 40.86C83.4033 39.2464 83.6661 37.5159 83.55 35.79C83.5349 35.5135 83.5349 35.2365 83.55 34.96C83.73 33.58 83.92 32.2 84.12 30.83C84.147 30.5942 84.2292 30.3681 84.36 30.17C84.36 31.25 84.87 32.26 84.45 33.39C84.3243 33.9799 84.3483 34.5918 84.52 35.17C84.5875 35.3541 84.6153 35.5503 84.6016 35.7459C84.5878 35.9415 84.5329 36.1319 84.4403 36.3047C84.3478 36.4776 84.2197 36.6289 84.0645 36.7487C83.9094 36.8685 83.7306 36.9542 83.54 37C83.82 37.17 84.03 37.23 84.12 37.37C84.21 37.51 84.29 37.85 84.21 37.92C83.75 38.31 83.84 38.71 84.21 39.11H84.27ZM86.18 33.19C86.4 34.49 86.36 34.55 85.37 34.5C85.21 33.5 85.21 33.5 86.12 33.19H86.18ZM87.52 37.88L85 38C85 37.63 85.06 37.4 85.09 37L87.56 36.56C87.52 37.06 87.49 37.43 87.46 37.88H87.52ZM85.33 36.35C84.98 35.35 85.06 35.27 86.22 35.19V36.1L85.33 36.35ZM87.78 36.06H86.78C87.0096 35.1522 87.0707 34.2099 86.96 33.28C86.96 32.78 86.96 32.78 87.74 32.7C87.7 33.82 87.71 34.91 87.72 36.06H87.78ZM85.33 32.79C85.26 32.35 85.2 31.97 85.13 31.55L86.13 31.1C86.13 31.4 86.23 31.61 86.25 31.82C86.27 32.03 86.25 32.18 86.25 32.4L85.33 32.79ZM87.72 31.52C87.72 32.06 87.36 32.08 86.91 32.13C86.8346 31.8489 86.8215 31.5547 86.8716 31.268C86.9217 30.9813 87.0338 30.7089 87.2 30.47L86.35 30L85.14 30.75C85.14 30.26 85.08 29.95 85.05 29.51L87.45 28.63C87.52 29.7 87.6 30.61 87.66 31.52H87.72ZM87.43 28.12L84.94 28.9C84.94 28.53 84.94 28.21 84.85 27.9L85.64 27.62L85.96 28.31C86.09 27.89 86.17 27.65 86.26 27.38L87.14 27.2C87.18 27.48 87.27 27.79 87.37 28.12H87.43ZM84.64 26.89C84.44 26.48 84.73 26.29 85.15 26.16L85.52 26.86C85.08 27.05 84.79 27.31 84.58 26.89H84.64ZM86.96 25.34C86.96 25.73 86.96 26.12 86.96 26.6L85.96 26.76C85.9015 26.6664 85.8653 26.5605 85.8542 26.4506C85.8432 26.3408 85.8575 26.2298 85.8962 26.1264C85.9349 26.023 85.9968 25.9298 86.0772 25.8541C86.1577 25.7785 86.2544 25.7223 86.36 25.69C86.5441 25.585 86.7212 25.4681 86.89 25.34L85.66 25.27C85.6 24.92 85.53 24.6 85.47 24.27L86.2 24L86.9 25.36L86.96 25.34ZM86 22.18C85.88 23.56 85.7 23.72 84 23.96C83.89 23.66 83.78 23.35 83.64 22.96C84.0605 22.8459 84.4744 22.7091 84.88 22.55C85.2 22.4 85.52 22.08 86 22.18ZM82.55 22.8C82.55 22.49 82.62 22.32 82.65 22.14H83.13C83.25 21.71 83.13 21.09 83.89 21.02C83.99 21.25 84.11 21.51 84.26 21.87L82.55 22.8ZM85.74 21.48L84.88 21.85C84.7616 21.5657 84.6841 21.2661 84.65 20.96C84.65 20.74 84.92 20.56 85.18 20.21C85.38 20.7 85.54 21 85.73 21.48H85.74ZM85 19.81L84.28 20.15C84.08 19.77 83.88 19.41 83.7 19.06C84.55 18.35 84.65 18.41 85 19.81ZM84.37 17.94L83.49 18.42L83 17.35L83.93 16.77C84.11 17.2 84.23 17.53 84.39 17.94H84.37ZM83.75 15.67C83.68 16.17 83.44 16.5 83.03 16.54C82.81 16.54 82.56 16.29 82.33 16.14C82.69 15.44 83.18 15.54 83.77 15.67H83.75ZM82.75 14.81L81.98 15.47L81.79 15.37C81.79 15.2 81.79 14.98 81.87 14.87C81.95 14.76 82.35 14.43 82.77 14.81H82.75ZM82.18 14L81.55 14.4C81.19 14.11 81.19 13.85 81.55 13.63C81.91 13.41 82 13.67 82.18 14ZM76 7.34C77.7486 8.71885 79.3443 10.2811 80.76 12C80.76 12 80.87 12.1 80.87 12.15C80.87 12.2 80.87 12.52 80.87 12.71C80.68 12.71 80.41 12.71 80.32 12.6C79.93 12.12 79.61 11.6 79.25 11.08C79.06 10.81 78.86 10.51 78.31 10.68C78.9226 11.7748 79.6179 12.8212 80.39 13.81L79.24 14.37C78.7 13.43 78.24 12.52 77.65 11.63C77.4043 11.3121 77.1334 11.0145 76.84 10.74C76.31 10.19 75.84 9.61 75.26 9.08C75.1203 8.95829 75.0285 8.79083 75.001 8.6076C74.9735 8.42437 75.0122 8.23734 75.11 8.08L78 10.34C78.0628 10.1234 78.0506 9.89192 77.9652 9.68316C77.8799 9.4744 77.7265 9.3006 77.53 9.19C76.77 8.53 76.02 7.86 75.27 7.19L75.42 7C75.622 7.0978 75.816 7.21149 76 7.34ZM73 6.7C73.0514 6.77722 73.0852 6.86485 73.0988 6.95663C73.1125 7.04841 73.1057 7.14207 73.0789 7.23092C73.0522 7.31977 73.0061 7.40161 72.9441 7.4706C72.882 7.53959 72.8055 7.59402 72.72 7.63C72.64 8.23 73.43 8.63 73.14 9.25L72.4 9.59C72.69 9.99 72.15 9.97 72.14 10.08C72.1555 10.3581 72.2269 10.6302 72.35 10.88C71.83 11.46 71.63 10.25 71.06 10.7L71.4 11.53L70.94 12.05L69.42 11.05H69.37C69.14 11.38 69.37 11.57 69.59 11.79C69.81 12.01 69.7 12.23 69.31 12.36C69.1 12.05 68.87 11.71 68.56 11.23L69.37 11.05C69.3908 10.912 69.4592 10.7855 69.5632 10.6924C69.6672 10.5993 69.8005 10.5454 69.94 10.54C70.71 10.45 71.13 9.8 71.71 9.42C71.8747 9.27309 71.9782 9.06965 72 8.85C72.0793 8.33378 72.1195 7.81229 72.12 7.29C72.0852 7.05474 71.9807 6.83531 71.82 6.66C71.39 6.08 70.94 5.51 70.46 4.88C71.0205 4.87964 71.5671 5.05504 72.0227 5.38152C72.4783 5.70799 72.8201 6.16912 73 6.7ZM68.11 4.4C68.8 4.48 69.11 5.08 69.54 5.5C69.9246 5.91154 70.2884 6.34208 70.63 6.79C70.5889 6.85102 70.542 6.90794 70.49 6.96C69.8057 6.74858 69.2022 6.33343 68.76 5.77C68.4014 5.15482 67.8876 4.64449 67.27 4.29C67.0036 4.0963 66.7497 3.88588 66.51 3.66C67.43 3.4 67.54 4.33 68.11 4.4ZM65.11 2.24C65.1862 2.31343 65.2413 2.40603 65.2695 2.50807C65.2976 2.61012 65.2978 2.71786 65.27 2.82C65.19 2.97 64.88 3.04 64.67 3.02C64.46 3 64.39 2.81 64.26 2.68L63.12 1.58C64 1.83 64.57 2 65.15 2.24H65.11ZM34.21 55.6C33.8688 56.3132 33.4459 56.9843 32.95 57.6L32.78 57.52C32.7805 57.3567 32.8076 57.1946 32.86 57.04C33.71 55.15 34.58 53.28 35.41 51.39C35.81 50.49 36.12 49.56 36.47 48.64C36.5876 48.2578 36.7451 47.8891 36.94 47.54C37.82 46.23 38.2 44.65 39.26 43.44C39.5645 42.4352 40.0869 41.5098 40.79 40.73C41.79 39.35 42.36 37.73 43.41 36.41C44.84 34.6 46.18 32.72 47.55 30.86C47.78 30.56 48 30.29 48.39 30.28C48.71 30.55 48.51 30.75 48.39 30.94C47.17 32.49 45.93 34.02 44.75 35.6C44.2 36.33 43.75 37.16 43.3 37.93C43.08 38.27 42.83 38.57 42.6 38.93C41.46 40.6 40.6 42.41 39.51 44.14C38.4718 45.8899 37.5659 47.715 36.8 49.6C35.92 51.56 35.06 53.58 34.21 55.6ZM72.31 52.24C71.3779 54.3253 70.0732 56.223 68.46 57.84C68.26 58.03 68.05 58.19 67.84 58.37L67.63 58.22C67.8 57.95 67.96 57.67 68.14 57.41C68.94 56.2 69.81 55.03 70.54 53.79C71.49 52.17 72.32 50.48 73.23 48.79C73.7799 47.8248 74.2129 46.7976 74.52 45.73C74.7774 44.9421 75.1124 44.1817 75.52 43.46C75.988 42.8375 76.2153 42.0668 76.16 41.29C76.73 41.37 76.69 41.76 76.59 42.06C76.372 42.6692 76.1079 43.2609 75.8 43.83C75.3295 44.6458 75.0556 45.5599 75 46.5C74.9547 46.8947 74.8288 47.276 74.63 47.62C73.88 49.16 73.05 50.68 72.31 52.24ZM48.26 32.71C48.49 33.47 48.01 33.85 47.76 34.3C47.22 35.24 46.63 36.14 46.04 37.04C45.45 37.94 44.73 38.82 44.15 39.76C43.15 41.36 41.83 42.76 41.23 44.57C41.218 44.6325 41.1905 44.6909 41.15 44.74C39.9 45.84 39.74 47.51 38.99 48.87C38.9518 48.9532 38.8974 49.028 38.83 49.09C38.83 49.09 38.72 49.09 38.53 49.09C38.5537 48.3039 38.7848 47.538 39.2 46.87C39.92 45.43 40.63 43.99 41.46 42.63C42.29 41.27 43.15 40.24 44 39C44.66 38 45.27 37 45.93 36C46.59 35 47.26 34.07 47.93 33.1C48 33 48.09 32.78 48.26 32.71ZM48.31 57C48.3629 56.7902 48.4436 56.5884 48.55 56.4C49.55 55.05 50.63 53.72 51.61 52.4C52.59 51.08 53.39 49.73 54.3 48.4C55.01 47.4 55.75 46.34 56.47 45.3C56.62 45.08 56.76 44.83 56.9 44.6L57.59 43.43L57.88 43.55C57.7778 43.9849 57.6372 44.4099 57.46 44.82C57.15 45.39 56.74 45.9 56.39 46.45C56.04 47 55.82 47.45 55.5 47.95C55.18 48.45 54.69 49.19 54.26 49.79C53.83 50.39 53.26 51.2 52.7 51.85C52.6325 51.905 52.5768 51.973 52.5361 52.05C52.4954 52.127 52.4706 52.2113 52.4631 52.2981C52.4557 52.3848 52.4657 52.4722 52.4927 52.555C52.5196 52.6377 52.5629 52.7143 52.62 52.78C51.68 52.96 51.36 53.73 50.91 54.36C50.46 54.99 50.16 55.49 49.76 56.05C49.5966 56.2995 49.3835 56.5126 49.134 56.6761C48.8845 56.8395 48.604 56.9498 48.31 57ZM46.84 54.34C48.99 51.24 50.64 47.81 52.94 44.82L53.1 44.89C53.1054 44.9164 53.1054 44.9436 53.1 44.97C53.1144 45.0291 53.1144 45.0909 53.1 45.15C52.7823 45.8839 52.4216 46.5985 52.02 47.29C50.41 49.77 49.02 52.41 47.02 54.6C46.97 54.66 46.86 54.67 46.72 54.73C46.7328 54.5836 46.7735 54.441 46.84 54.31V54.34ZM59.84 46.74C59.38 47.39 58.84 48.02 58.45 48.68C58.22 49.03 58.11 49.47 57.87 49.81C57.2098 50.9188 56.4429 51.9604 55.58 52.92C54.69 53.79 54.01 54.82 53.17 55.71C52.9793 55.8906 52.779 56.0609 52.57 56.22L52.37 56.02C53.32 54.83 54.29 53.65 55.2 52.42C56.11 51.19 57.04 49.82 57.93 48.5C58.41 47.78 58.83 47.03 59.28 46.3C59.3578 46.166 59.4595 46.0474 59.58 45.95C59.66 45.89 59.85 45.85 59.91 45.9C59.97 45.95 60.13 46.16 60.11 46.27C60.0665 46.4298 59.9918 46.5794 59.89 46.71L59.84 46.74ZM57.72 59.84C56.16 61.49 54.49 63.05 52.86 64.64C52.7013 64.7553 52.5302 64.8526 52.35 64.93C51.99 64.6 51.86 64.34 52.24 64.04C52.8 63.61 53.33 63.13 53.91 62.74C55.7628 61.4553 57.3714 59.8501 58.66 58C59.54 56.79 60.27 55.47 61.2 54C61.05 54.46 60.98 54.73 60.88 55C60.1529 56.8043 59.0794 58.4486 57.72 59.84ZM70.59 50.41C71.1445 49.3036 71.6321 48.1649 72.05 47C72.0845 46.8118 72.183 46.6413 72.3288 46.5174C72.4746 46.3935 72.6587 46.3238 72.85 46.32C72.775 46.8372 72.6511 47.3462 72.48 47.84C72.09 48.68 71.58 49.46 71.17 50.28C70.86 50.88 70.67 51.54 70.34 52.12C69.76 53.12 69.11 54.12 68.47 55.12C68.3304 55.3567 68.1662 55.5779 67.98 55.78C67.74 56.03 67.47 56.26 67.22 56.5L67.06 56.38C67.1 56.2274 67.1571 56.0798 67.23 55.94C68.35 54.09 69.54 52.29 70.59 50.41ZM54.29 58.31C55.05 57.42 55.69 56.57 56.44 55.82C57.7733 54.3808 58.9654 52.8169 60 51.15C60.16 50.91 60.34 50.68 60.52 50.45L60.71 50.55C60.5526 51.037 60.3448 51.5062 60.09 51.95C59.118 53.5894 57.9493 55.104 56.61 56.46C56.4685 56.6209 56.3033 56.7591 56.12 56.87C55.9197 56.9474 55.7384 57.067 55.5883 57.2205C55.4382 57.3741 55.3229 57.558 55.25 57.76C55.1917 57.9577 55.0593 58.1252 54.8804 58.2277C54.7016 58.3302 54.4901 58.3597 54.29 58.31ZM66 63.5C65.8801 63.6197 65.776 63.7541 65.69 63.9C64.5533 64.4378 63.5673 65.2486 62.82 66.26C62.34 66.1 62.32 65.76 62.56 65.48C62.8955 65.045 63.3051 64.6726 63.77 64.38C65.7883 63.3046 67.5943 61.8713 69.1 60.15C69.21 60.77 69.21 60.82 68.69 61.26C67.84 62 66.93 62.75 66 63.5ZM43.31 45.89C44.9 43.45 46.48 41 48.16 38.4C48.1826 38.6582 48.1623 38.9184 48.1 39.17C47.54 40.27 46.96 41.36 46.36 42.44C46.12 42.87 45.79 43.24 45.54 43.66C45 44.65 44.05 45.16 43.35 45.94L43.31 45.89ZM61.3 64.46L65.71 60.3C65.88 60.56 65.78 60.81 65.59 61.07C65.27 61.52 64.96 61.99 64.65 62.44C64.56 62.56 64.46 62.72 64.34 62.77C63.4495 63.202 62.654 63.8071 62 64.55C61.79 64.8 61.52 64.94 61.3 64.46ZM75.05 37.1H74.84C74.7913 36.7689 74.7679 36.4346 74.77 36.1C74.935 34.3806 74.935 32.6494 74.77 30.93C74.77 30.93 74.84 30.84 74.93 30.74C75.53 30.9 75.58 31.52 75.57 31.9C75.5974 33.6476 75.4229 35.3925 75.05 37.1ZM70.7 46.51L71.27 44.87L72.8 40.47C72.9701 40.6283 73.0873 40.8351 73.1356 41.0624C73.1839 41.2896 73.161 41.5262 73.07 41.74C72.5855 43.2654 71.9734 44.7474 71.24 46.17C71.1816 46.2639 71.1027 46.3432 71.0091 46.4021C70.9156 46.461 70.8099 46.4979 70.7 46.51ZM53.31 57.4C53.89 56.76 54.5 56.14 55.09 55.51C55.1763 55.3786 55.2886 55.2663 55.42 55.18C55.58 55.1 55.87 54.97 55.95 55.04C56.2 55.26 56.02 55.48 55.83 55.66L55.16 56.3L51.78 59.58C51.59 59.76 51.44 59.98 51.26 60.18L51.05 60C51.8 59.14 52.55 58.26 53.31 57.4ZM61.49 58.12C60.97 58.59 60.71 59.37 59.79 59.59L65.35 52.85C65.1823 53.5175 64.8565 54.1349 64.4 54.65C63.93 55.22 63.49 55.82 63.02 56.39C62.5476 56.9988 62.0365 57.5767 61.49 58.12ZM50.11 64.17C50.11 64.02 50.11 63.88 50.18 63.83C51.7203 62.7452 53.1594 61.5236 54.48 60.18C54.48 60.18 54.6 60.18 54.74 60.11C54.38 61.3 52.29 63.12 50.11 64.17ZM66.64 54.45C66.1681 56.0236 65.1688 57.3867 63.81 58.31C64.5468 56.884 65.5016 55.5816 66.64 54.45ZM73.07 45.32C73.3644 43.8713 73.7689 42.4472 74.28 41.06C74.77 41.17 74.85 41.39 74.76 41.66C74.62 42.13 74.45 42.59 74.27 43.04C74.09 43.49 73.84 44.19 73.6 44.75C73.4879 44.9912 73.3024 45.1907 73.07 45.32ZM68.07 52.39C68.4814 51.0163 69.0696 49.702 69.82 48.48C70.3 49.16 69.91 49.65 69.73 50.06C69.4017 50.972 68.8313 51.7775 68.08 52.39H68.07ZM75.84 50.79L77.13 48.57H77.34C77.3807 48.8049 77.3807 49.0451 77.34 49.28C77 50 76.77 50.64 75.85 50.79H75.84ZM49 63.66C49.5577 62.7765 50.3853 62.0962 51.36 61.72C50.7166 62.5236 49.9129 63.1843 49 63.66ZM49.1 60C49.4251 59.2752 50.0052 58.6951 50.73 58.37C50.3443 59.0509 49.7809 59.6143 49.1 60ZM65.79 58L65.95 58.12L64.75 59.63C64.83 58.93 64.83 58.93 65.79 58ZM58.58 10.19L58.43 10.24C58.43 10.12 58.36 10 58.32 9.88L58.47 9.83C58.51 10 58.55 10.07 58.58 10.19ZM24 71.74C24.0498 71.7461 24.0976 71.7632 24.14 71.79C24.14 71.85 24.14 71.92 24.14 71.95L23.65 72.36C23.59 72.26 23.48 72.15 23.5 72.07C23.508 72.0139 23.5277 71.9602 23.558 71.9123C23.5883 71.8645 23.6284 71.8236 23.6757 71.7924C23.723 71.7612 23.7763 71.7404 23.8322 71.7314C23.8881 71.7223 23.9453 71.7253 24 71.74Z" fill="#101A24"/>
</g>
<defs>
<clipPath id="clip0_1_212">
<rect width="89.72" height="81.32" fill="white"/>
</clipPath>
</defs>
</svg>
